<?xml version="1.0" encoding="UTF-8"?>
<svg xmlns="http://www.w3.org/2000/svg" xmlns:xlink="http://www.w3.org/1999/xlink" width="414.496562" height="227.808" viewBox="0 0 414.496562 227.808">
<defs>
<g>
<g id="glyph-0-0">
<path d="M 1.269531 -4.253906 L 8.773438 -4.253906 L 8.773438 -3.261719 L 1.269531 -3.261719 Z M 1.269531 -4.253906 "/>
</g>
<g id="glyph-0-1">
<path d="M 5.371094 -1.484375 L 6.617188 -1.484375 L 6.617188 0 L 5.371094 0 Z M 9.359375 -1.484375 L 10.605469 -1.484375 L 10.605469 0 L 9.359375 0 Z M 1.378906 -1.484375 L 2.625 -1.484375 L 2.625 0 L 1.378906 0 Z M 1.378906 -1.484375 "/>
</g>
<g id="glyph-1-0">
<path d="M 3.957031 -4.84375 C 3.429688 -4.84375 3.007812 -4.664062 2.695312 -4.289062 C 2.386719 -3.929688 2.230469 -3.441406 2.230469 -2.804688 C 2.230469 -2.167969 2.386719 -1.679688 2.695312 -1.304688 C 3.007812 -0.945312 3.429688 -0.765625 3.957031 -0.765625 C 4.484375 -0.765625 4.902344 -0.945312 5.214844 -1.304688 C 5.523438 -1.679688 5.679688 -2.167969 5.679688 -2.804688 C 5.679688 -3.441406 5.523438 -3.929688 5.214844 -4.289062 C 4.902344 -4.664062 4.484375 -4.84375 3.957031 -4.84375 Z M 6.304688 -8.546875 L 6.304688 -7.46875 C 6.003906 -7.609375 5.703125 -7.71875 5.40625 -7.789062 C 5.105469 -7.863281 4.804688 -7.898438 4.507812 -7.898438 C 3.726562 -7.898438 3.128906 -7.632812 2.71875 -7.105469 C 2.300781 -6.578125 2.074219 -5.789062 2.011719 -4.722656 C 2.242188 -5.070312 2.527344 -5.320312 2.875 -5.5 C 3.222656 -5.679688 3.609375 -5.777344 4.027344 -5.777344 C 4.902344 -5.777344 5.597656 -5.511719 6.101562 -4.972656 C 6.617188 -4.445312 6.867188 -3.726562 6.867188 -2.804688 C 6.867188 -1.90625 6.605469 -1.1875 6.078125 -0.648438 C 5.539062 -0.109375 4.832031 0.167969 3.957031 0.167969 C 2.949219 0.167969 2.179688 -0.214844 1.640625 -0.996094 C 1.101562 -1.773438 0.839844 -2.886719 0.839844 -4.363281 C 0.839844 -5.742188 1.164062 -6.84375 1.820312 -7.660156 C 2.480469 -8.484375 3.355469 -8.894531 4.457031 -8.894531 C 4.757812 -8.894531 5.058594 -8.871094 5.359375 -8.808594 C 5.65625 -8.75 5.980469 -8.664062 6.304688 -8.546875 Z M 6.304688 -8.546875 "/>
</g>
<g id="glyph-1-1">
<path d="M 4.53125 -7.707031 L 1.546875 -3.042969 L 4.53125 -3.042969 Z M 4.21875 -8.738281 L 5.703125 -8.738281 L 5.703125 -3.042969 L 6.953125 -3.042969 L 6.953125 -2.0625 L 5.703125 -2.0625 L 5.703125 0 L 4.53125 0 L 4.53125 -2.0625 L 0.585938 -2.0625 L 0.585938 -3.199219 Z M 4.21875 -8.738281 "/>
</g>
<g id="glyph-1-2">
<path d="M 2.300781 -0.996094 L 6.425781 -0.996094 L 6.425781 0 L 0.875 0 L 0.875 -0.996094 C 1.320312 -1.460938 1.929688 -2.085938 2.707031 -2.863281 C 3.488281 -3.644531 3.96875 -4.148438 4.171875 -4.375 C 4.554688 -4.792969 4.816406 -5.152344 4.960938 -5.453125 C 5.117188 -5.753906 5.191406 -6.039062 5.191406 -6.328125 C 5.191406 -6.796875 5.023438 -7.167969 4.699219 -7.46875 C 4.375 -7.753906 3.957031 -7.898438 3.429688 -7.898438 C 3.054688 -7.898438 2.671875 -7.839844 2.253906 -7.707031 C 1.847656 -7.574219 1.402344 -7.382812 0.933594 -7.121094 L 0.933594 -8.316406 C 1.414062 -8.507812 1.859375 -8.652344 2.265625 -8.75 C 2.683594 -8.84375 3.054688 -8.894531 3.402344 -8.894531 C 4.304688 -8.894531 5.035156 -8.664062 5.574219 -8.222656 C 6.113281 -7.765625 6.375 -7.15625 6.375 -6.398438 C 6.375 -6.039062 6.304688 -5.703125 6.171875 -5.382812 C 6.039062 -5.058594 5.800781 -4.6875 5.441406 -4.242188 C 5.34375 -4.136719 5.035156 -3.800781 4.507812 -3.261719 C 3.992188 -2.71875 3.25 -1.964844 2.300781 -0.996094 Z M 2.300781 -0.996094 "/>
</g>
<g id="glyph-1-3">
<path d="M 3.8125 -7.957031 C 3.199219 -7.957031 2.746094 -7.660156 2.433594 -7.058594 C 2.132812 -6.460938 1.976562 -5.5625 1.976562 -4.363281 C 1.976562 -3.164062 2.132812 -2.265625 2.433594 -1.664062 C 2.746094 -1.066406 3.199219 -0.765625 3.8125 -0.765625 C 4.421875 -0.765625 4.890625 -1.066406 5.191406 -1.664062 C 5.488281 -2.265625 5.644531 -3.164062 5.644531 -4.363281 C 5.644531 -5.5625 5.488281 -6.460938 5.191406 -7.058594 C 4.890625 -7.660156 4.421875 -7.957031 3.8125 -7.957031 Z M 3.8125 -8.894531 C 4.78125 -8.894531 5.539062 -8.507812 6.050781 -7.730469 C 6.566406 -6.953125 6.832031 -5.835938 6.832031 -4.363281 C 6.832031 -2.886719 6.566406 -1.773438 6.050781 -0.996094 C 5.539062 -0.214844 4.78125 0.167969 3.8125 0.167969 C 2.828125 0.167969 2.074219 -0.214844 1.558594 -0.996094 C 1.042969 -1.773438 0.792969 -2.886719 0.792969 -4.363281 C 0.792969 -5.835938 1.042969 -6.953125 1.558594 -7.730469 C 2.074219 -8.507812 2.828125 -8.894531 3.8125 -8.894531 Z M 3.8125 -8.894531 "/>
</g>
<g id="glyph-1-4">
<path d="M 1.269531 -5.441406 L 8.773438 -5.441406 L 8.773438 -4.457031 L 1.269531 -4.457031 Z M 1.269531 -3.054688 L 8.773438 -3.054688 L 8.773438 -2.0625 L 1.269531 -2.0625 Z M 1.269531 -3.054688 "/>
</g>
<g id="glyph-1-5">
<path d="M 5.511719 -7.515625 L 5.511719 -4.253906 L 8.773438 -4.253906 L 8.773438 -3.261719 L 5.511719 -3.261719 L 5.511719 0 L 4.53125 0 L 4.53125 -3.261719 L 1.269531 -3.261719 L 1.269531 -4.253906 L 4.53125 -4.253906 L 4.53125 -7.515625 Z M 5.511719 -7.515625 "/>
</g>
<g id="glyph-1-6">
<path d="M 1.28125 -1.484375 L 2.515625 -1.484375 L 2.515625 0 L 1.28125 0 Z M 1.28125 -1.484375 "/>
</g>
<g id="glyph-1-7">
<path d="M 3.8125 -4.148438 C 3.25 -4.148438 2.804688 -4.003906 2.480469 -3.703125 C 2.15625 -3.402344 2 -2.984375 2 -2.457031 C 2 -1.929688 2.15625 -1.523438 2.480469 -1.222656 C 2.804688 -0.921875 3.25 -0.765625 3.8125 -0.765625 C 4.375 -0.765625 4.816406 -0.921875 5.140625 -1.222656 C 5.464844 -1.523438 5.621094 -1.941406 5.621094 -2.457031 C 5.621094 -2.984375 5.464844 -3.402344 5.140625 -3.703125 C 4.816406 -4.003906 4.375 -4.148438 3.8125 -4.148438 Z M 2.625 -4.648438 C 2.121094 -4.78125 1.726562 -5.011719 1.4375 -5.359375 C 1.164062 -5.703125 1.019531 -6.136719 1.019531 -6.628906 C 1.019531 -7.335938 1.269531 -7.886719 1.761719 -8.28125 C 2.253906 -8.6875 2.9375 -8.894531 3.8125 -8.894531 C 4.6875 -8.894531 5.371094 -8.6875 5.859375 -8.28125 C 6.351562 -7.886719 6.605469 -7.335938 6.605469 -6.628906 C 6.605469 -6.136719 6.460938 -5.703125 6.171875 -5.359375 C 5.898438 -5.011719 5.5 -4.78125 4.996094 -4.648438 C 5.5625 -4.519531 6.003906 -4.265625 6.328125 -3.871094 C 6.652344 -3.488281 6.808594 -3.019531 6.808594 -2.457031 C 6.808594 -1.605469 6.542969 -0.957031 6.027344 -0.503906 C 5.511719 -0.0585938 4.769531 0.167969 3.8125 0.167969 C 2.839844 0.167969 2.097656 -0.0585938 1.582031 -0.503906 C 1.066406 -0.957031 0.816406 -1.605469 0.816406 -2.457031 C 0.816406 -3.019531 0.972656 -3.488281 1.292969 -3.871094 C 1.617188 -4.265625 2.0625 -4.519531 2.625 -4.648438 Z M 2.191406 -6.519531 C 2.191406 -6.066406 2.335938 -5.71875 2.613281 -5.464844 C 2.902344 -5.214844 3.296875 -5.082031 3.8125 -5.082031 C 4.316406 -5.082031 4.710938 -5.214844 4.996094 -5.464844 C 5.285156 -5.71875 5.429688 -6.066406 5.429688 -6.519531 C 5.429688 -6.976562 5.285156 -7.324219 4.996094 -7.574219 C 4.710938 -7.828125 4.316406 -7.957031 3.8125 -7.957031 C 3.296875 -7.957031 2.902344 -7.828125 2.613281 -7.574219 C 2.335938 -7.324219 2.191406 -6.976562 2.191406 -6.519531 Z M 2.191406 -6.519531 "/>
</g>
<g id="glyph-1-8">
<path d="M 1.484375 -0.996094 L 3.414062 -0.996094 L 3.414062 -7.660156 L 1.320312 -7.238281 L 1.320312 -8.316406 L 3.402344 -8.738281 L 4.589844 -8.738281 L 4.589844 -0.996094 L 6.519531 -0.996094 L 6.519531 0 L 1.484375 0 Z M 1.484375 -0.996094 "/>
</g>
<g id="glyph-2-0">
<path d="M 1.390625 -6.554688 L 6.507812 -6.554688 L 6.316406 -5.574219 L 1.378906 -0.863281 L 5.453125 -0.863281 L 5.285156 0 L -0.0351562 0 L 0.15625 -0.984375 L 5.09375 -5.691406 L 1.222656 -5.691406 Z M 1.390625 -6.554688 "/>
</g>
<g id="glyph-2-1">
<path d="M 7.191406 -6.554688 L 4.183594 -3.34375 L 6.027344 0 L 4.792969 0 L 3.402344 -2.601562 L 0.996094 0 L -0.3125 0 L 2.914062 -3.453125 L 1.199219 -6.554688 L 2.433594 -6.554688 L 3.691406 -4.183594 L 5.886719 -6.554688 Z M 7.191406 -6.554688 "/>
</g>
<g id="glyph-3-0">
<path d="M 1.628906 -0.40625 L 1.066406 2.492188 L -0.0117188 2.492188 L 1.738281 -6.507812 C 2.085938 -8.292969 3.082031 -9.179688 4.746094 -9.179688 C 6.4375 -9.179688 7.132812 -8.425781 6.855469 -6.925781 C 6.652344 -5.859375 6.171875 -5.128906 5.417969 -4.746094 C 6.4375 -4.398438 6.855469 -3.691406 6.652344 -2.648438 C 6.304688 -0.792969 5.175781 0.132812 3.296875 0.121094 C 2.46875 0.121094 1.90625 -0.0585938 1.628906 -0.40625 Z M 1.90625 -1.808594 C 2.207031 -1.125 2.746094 -0.792969 3.511719 -0.792969 C 4.636719 -0.792969 5.320312 -1.402344 5.550781 -2.636719 C 5.765625 -3.726562 4.960938 -4.242188 3.140625 -4.160156 L 3.332031 -5.152344 C 4.746094 -5.128906 5.574219 -5.753906 5.8125 -7.023438 C 5.980469 -7.875 5.609375 -8.304688 4.699219 -8.304688 C 3.679688 -8.304688 3.042969 -7.695312 2.816406 -6.484375 Z M 1.90625 -1.808594 "/>
</g>
<g id="glyph-4-0">
<path d="M 2.667969 -5.570312 C 2.238281 -5.570312 1.921875 -5.359375 1.703125 -4.941406 C 1.492188 -4.523438 1.382812 -3.894531 1.382812 -3.054688 C 1.382812 -2.214844 1.492188 -1.585938 1.703125 -1.167969 C 1.921875 -0.746094 2.238281 -0.535156 2.667969 -0.535156 C 3.097656 -0.535156 3.421875 -0.746094 3.632812 -1.167969 C 3.84375 -1.585938 3.953125 -2.214844 3.953125 -3.054688 C 3.953125 -3.894531 3.84375 -4.523438 3.632812 -4.941406 C 3.421875 -5.359375 3.097656 -5.570312 2.667969 -5.570312 Z M 2.667969 -6.226562 C 3.347656 -6.226562 3.875 -5.957031 4.238281 -5.410156 C 4.597656 -4.867188 4.78125 -4.085938 4.78125 -3.054688 C 4.78125 -2.023438 4.597656 -1.242188 4.238281 -0.695312 C 3.875 -0.152344 3.347656 0.117188 2.667969 0.117188 C 1.980469 0.117188 1.453125 -0.152344 1.089844 -0.695312 C 0.730469 -1.242188 0.554688 -2.023438 0.554688 -3.054688 C 0.554688 -4.085938 0.730469 -4.867188 1.089844 -5.410156 C 1.453125 -5.957031 1.980469 -6.226562 2.667969 -6.226562 Z M 2.667969 -6.226562 "/>
</g>
<g id="glyph-4-1">
<path d="M 1.039062 -0.695312 L 2.390625 -0.695312 L 2.390625 -5.359375 L 0.921875 -5.066406 L 0.921875 -5.824219 L 2.382812 -6.117188 L 3.214844 -6.117188 L 3.214844 -0.695312 L 4.5625 -0.695312 L 4.5625 0 L 1.039062 0 Z M 1.039062 -0.695312 "/>
</g>
<g id="glyph-5-0">
<path d="M 1.535156 -6.375 L 2.289062 -6.375 L 1.570312 -2.660156 L 4.152344 -4.589844 L 5.132812 -4.589844 L 2.25 -2.390625 L 4.355469 0 L 3.441406 0 L 1.484375 -2.238281 L 1.046875 0 L 0.292969 0 Z M 1.535156 -6.375 "/>
</g>
<g id="glyph-6-0">
<path d="M -5.703125 -4.160156 C -5.703125 -3.558594 -5.488281 -3.054688 -5.058594 -2.660156 C -4.613281 -2.242188 -4.015625 -1.953125 -3.273438 -1.808594 C -2.492188 -1.652344 -1.871094 -1.703125 -1.414062 -1.953125 C -0.972656 -2.207031 -0.742188 -2.613281 -0.742188 -3.199219 C -0.742188 -3.761719 -0.972656 -4.265625 -1.425781 -4.6875 C -1.871094 -5.105469 -2.492188 -5.394531 -3.273438 -5.550781 C -3.980469 -5.679688 -4.578125 -5.632812 -5.058594 -5.394531 C -5.488281 -5.164062 -5.703125 -4.757812 -5.703125 -4.160156 Z M -6.554688 -4.328125 L -6.554688 -7.898438 L -5.476562 -7.695312 L -5.476562 -6.484375 C -4.867188 -6.785156 -4.136719 -6.855469 -3.273438 -6.699219 C -2.207031 -6.484375 -1.355469 -6.050781 -0.742188 -5.40625 C -0.132812 -4.746094 0.167969 -3.957031 0.167969 -3.007812 C 0.167969 -2.074219 -0.132812 -1.402344 -0.742188 -0.984375 C -1.355469 -0.5625 -2.207031 -0.46875 -3.273438 -0.683594 C -4.351562 -0.886719 -5.191406 -1.320312 -5.800781 -1.964844 C -6.304688 -2.503906 -6.554688 -3.296875 -6.554688 -4.328125 Z M -6.554688 -4.328125 "/>
</g>
<g id="glyph-7-0">
<path d="M -9.097656 -3.714844 C -8.199219 -3.199219 -7.3125 -2.804688 -6.4375 -2.554688 C -5.5625 -2.300781 -4.664062 -2.167969 -3.761719 -2.167969 C -2.863281 -2.167969 -1.964844 -2.300781 -1.078125 -2.554688 C -0.203125 -2.804688 0.683594 -3.199219 1.582031 -3.714844 L 1.582031 -2.78125 C 0.660156 -2.191406 -0.238281 -1.761719 -1.125 -1.460938 C -2.011719 -1.175781 -2.886719 -1.03125 -3.761719 -1.03125 C -4.636719 -1.03125 -5.511719 -1.175781 -6.386719 -1.460938 C -7.273438 -1.75 -8.175781 -2.191406 -9.097656 -2.78125 Z M -9.097656 -3.714844 "/>
</g>
<g id="glyph-7-1">
<path d="M -9.097656 -0.957031 L -9.097656 -1.894531 C -8.175781 -2.480469 -7.273438 -2.914062 -6.386719 -3.210938 C -5.511719 -3.5 -4.636719 -3.644531 -3.761719 -3.644531 C -2.886719 -3.644531 -2.011719 -3.5 -1.125 -3.210938 C -0.238281 -2.914062 0.660156 -2.480469 1.582031 -1.894531 L 1.582031 -0.957031 C 0.683594 -1.472656 -0.203125 -1.871094 -1.078125 -2.121094 C -1.964844 -2.375 -2.863281 -2.503906 -3.761719 -2.503906 C -4.664062 -2.503906 -5.5625 -2.375 -6.4375 -2.121094 C -7.3125 -1.871094 -8.199219 -1.472656 -9.097656 -0.957031 Z M -9.097656 -0.957031 "/>
</g>
<g id="glyph-7-2">
<path d="M -5.441406 -1.269531 L -5.441406 -8.773438 L -4.457031 -8.773438 L -4.457031 -1.269531 Z M -3.054688 -1.269531 L -3.054688 -8.773438 L -2.0625 -8.773438 L -2.0625 -1.269531 Z M -3.054688 -1.269531 "/>
</g>
<g id="glyph-7-3">
<path d="M -0.996094 -1.484375 L -0.996094 -3.414062 L -7.660156 -3.414062 L -7.238281 -1.320312 L -8.316406 -1.320312 L -8.738281 -3.402344 L -8.738281 -4.589844 L -0.996094 -4.589844 L -0.996094 -6.519531 L 0 -6.519531 L 0 -1.484375 Z M -0.996094 -1.484375 "/>
</g>
<g id="glyph-7-4">
<path d="M -8.738281 -3.042969 L -8.738281 -4.039062 L 1.113281 -0.996094 L 1.113281 0 Z M -8.738281 -3.042969 "/>
</g>
<g id="glyph-7-5">
<path d="M -7.515625 -5.511719 L -4.253906 -5.511719 L -4.253906 -8.773438 L -3.261719 -8.773438 L -3.261719 -5.511719 L 0 -5.511719 L 0 -4.53125 L -3.261719 -4.53125 L -3.261719 -1.269531 L -4.253906 -1.269531 L -4.253906 -4.53125 L -7.515625 -4.53125 Z M -7.515625 -5.511719 "/>
</g>
<g id="glyph-8-0">
<path d="M -6.554688 -1.390625 L -6.554688 -6.507812 L -5.574219 -6.316406 L -0.863281 -1.378906 L -0.863281 -5.453125 L 0 -5.285156 L 0 0.0351562 L -0.984375 -0.15625 L -5.691406 -5.09375 L -5.691406 -1.222656 Z M -6.554688 -1.390625 "/>
</g>
<g id="glyph-8-1">
<path d="M -3.859375 -5.765625 C -3.917969 -5.777344 -3.992188 -5.777344 -4.050781 -5.789062 C -4.121094 -5.800781 -4.195312 -5.800781 -4.253906 -5.800781 C -4.734375 -5.800781 -5.105469 -5.65625 -5.382812 -5.382812 C -5.65625 -5.105469 -5.800781 -4.722656 -5.800781 -4.242188 C -5.800781 -3.703125 -5.632812 -3.234375 -5.285156 -2.828125 C -4.949219 -2.421875 -4.46875 -2.109375 -3.859375 -1.894531 Z M -3.019531 -6.699219 L -3.019531 -1.691406 C -2.863281 -1.664062 -2.757812 -1.652344 -2.671875 -1.640625 C -2.589844 -1.628906 -2.503906 -1.628906 -2.445312 -1.628906 C -1.90625 -1.628906 -1.484375 -1.796875 -1.1875 -2.132812 C -0.886719 -2.46875 -0.742188 -2.9375 -0.742188 -3.546875 C -0.742188 -4.015625 -0.792969 -4.457031 -0.898438 -4.878906 C -1.007812 -5.296875 -1.164062 -5.679688 -1.367188 -6.039062 L -0.300781 -5.835938 C -0.144531 -5.441406 -0.0234375 -5.046875 0.046875 -4.636719 C 0.132812 -4.21875 0.167969 -3.800781 0.167969 -3.378906 C 0.167969 -2.46875 -0.046875 -1.773438 -0.480469 -1.28125 C -0.921875 -0.792969 -1.535156 -0.550781 -2.335938 -0.550781 C -3.019531 -0.550781 -3.65625 -0.671875 -4.242188 -0.910156 C -4.832031 -1.164062 -5.34375 -1.523438 -5.8125 -1.988281 C -6.101562 -2.289062 -6.328125 -2.648438 -6.484375 -3.066406 C -6.640625 -3.488281 -6.710938 -3.941406 -6.710938 -4.410156 C -6.710938 -5.152344 -6.484375 -5.742188 -6.039062 -6.183594 C -5.597656 -6.628906 -5.011719 -6.84375 -4.253906 -6.84375 C -4.074219 -6.84375 -3.882812 -6.832031 -3.679688 -6.808594 C -3.476562 -6.785156 -3.25 -6.746094 -3.019531 -6.699219 Z M -3.019531 -6.699219 "/>
</g>
<g id="glyph-9-0">
<path d="M -2.976562 -0.890625 L -2.976562 -6.140625 L -2.28125 -6.140625 L -2.28125 -0.890625 Z M -2.976562 -0.890625 "/>
</g>
<g id="glyph-10-0">
<path d="M -4.589844 -0.972656 L -4.589844 -4.554688 L -3.902344 -4.421875 L -0.605469 -0.964844 L -0.605469 -3.816406 L 0 -3.699219 L 0 0.0234375 L -0.6875 -0.109375 L -3.984375 -3.566406 L -3.984375 -0.855469 Z M -4.589844 -0.972656 "/>
</g>
<g id="glyph-11-0">
<path d="M 1.273438 -6.007812 L 5.964844 -6.007812 L 5.789062 -5.109375 L 1.261719 -0.792969 L 5 -0.792969 L 4.84375 0 L -0.03125 0 L 0.144531 -0.902344 L 4.667969 -5.21875 L 1.121094 -5.21875 Z M 1.273438 -6.007812 "/>
</g>
<g id="glyph-11-1">
<path d="M 5.449219 -3.703125 C 5.449219 -4.230469 5.339844 -4.636719 5.109375 -4.910156 C 4.878906 -5.1875 4.546875 -5.328125 4.121094 -5.328125 C 3.824219 -5.328125 3.546875 -5.25 3.273438 -5.097656 C 3.011719 -4.953125 2.78125 -4.734375 2.570312 -4.449219 C 2.363281 -4.164062 2.199219 -3.824219 2.078125 -3.429688 C 1.957031 -3.019531 1.902344 -2.625 1.902344 -2.230469 C 1.902344 -1.734375 2.011719 -1.351562 2.242188 -1.078125 C 2.472656 -0.800781 2.789062 -0.671875 3.21875 -0.671875 C 3.527344 -0.671875 3.8125 -0.746094 4.085938 -0.890625 C 4.351562 -1.03125 4.582031 -1.253906 4.769531 -1.527344 C 4.976562 -1.824219 5.140625 -2.164062 5.261719 -2.558594 C 5.382812 -2.964844 5.449219 -3.339844 5.449219 -3.703125 Z M 2.394531 -5.097656 C 2.660156 -5.4375 2.964844 -5.703125 3.328125 -5.890625 C 3.691406 -6.066406 4.085938 -6.152344 4.527344 -6.152344 C 5.140625 -6.152344 5.613281 -5.953125 5.953125 -5.546875 C 6.296875 -5.140625 6.472656 -4.582031 6.472656 -3.855469 C 6.472656 -3.261719 6.359375 -2.691406 6.152344 -2.152344 C 5.945312 -1.613281 5.636719 -1.144531 5.242188 -0.714844 C 4.976562 -0.429688 4.679688 -0.207031 4.351562 -0.0664062 C 4.011719 0.078125 3.660156 0.152344 3.296875 0.152344 C 2.867188 0.152344 2.515625 0.0664062 2.21875 -0.109375 C 1.933594 -0.285156 1.714844 -0.550781 1.570312 -0.902344 L 0.957031 2.285156 L -0.03125 2.285156 L 1.582031 -6.007812 L 2.570312 -6.007812 Z M 2.394531 -5.097656 "/>
</g>
<g id="glyph-12-0">
<path d="M 1.164062 -4.988281 L 8.042969 -4.988281 L 8.042969 -4.085938 L 1.164062 -4.085938 Z M 1.164062 -2.800781 L 8.042969 -2.800781 L 8.042969 -1.890625 L 1.164062 -1.890625 Z M 1.164062 -2.800781 "/>
</g>
<g id="glyph-12-1">
<path d="M 3.492188 -7.296875 C 2.933594 -7.296875 2.515625 -7.019531 2.230469 -6.472656 C 1.957031 -5.921875 1.8125 -5.097656 1.8125 -4 C 1.8125 -2.902344 1.957031 -2.078125 2.230469 -1.527344 C 2.515625 -0.976562 2.933594 -0.703125 3.492188 -0.703125 C 4.054688 -0.703125 4.484375 -0.976562 4.757812 -1.527344 C 5.03125 -2.078125 5.175781 -2.902344 5.175781 -4 C 5.175781 -5.097656 5.03125 -5.921875 4.757812 -6.472656 C 4.484375 -7.019531 4.054688 -7.296875 3.492188 -7.296875 Z M 3.492188 -8.152344 C 4.382812 -8.152344 5.074219 -7.800781 5.546875 -7.085938 C 6.019531 -6.371094 6.261719 -5.351562 6.261719 -4 C 6.261719 -2.648438 6.019531 -1.625 5.546875 -0.910156 C 5.074219 -0.199219 4.382812 0.152344 3.492188 0.152344 C 2.59375 0.152344 1.902344 -0.199219 1.429688 -0.910156 C 0.957031 -1.625 0.726562 -2.648438 0.726562 -4 C 0.726562 -5.351562 0.957031 -6.371094 1.429688 -7.085938 C 1.902344 -7.800781 2.59375 -8.152344 3.492188 -8.152344 Z M 3.492188 -8.152344 "/>
</g>
<g id="glyph-12-2">
<path d="M 1.175781 -1.363281 L 2.308594 -1.363281 L 2.308594 0 L 1.175781 0 Z M 1.175781 -1.363281 "/>
</g>
<g id="glyph-12-3">
<path d="M 1.1875 -8.007812 L 5.4375 -8.007812 L 5.4375 -7.097656 L 2.175781 -7.097656 L 2.175781 -5.128906 C 2.339844 -5.1875 2.492188 -5.230469 2.648438 -5.25 C 2.8125 -5.285156 2.964844 -5.296875 3.121094 -5.296875 C 4.011719 -5.296875 4.722656 -5.054688 5.25 -4.558594 C 5.769531 -4.066406 6.03125 -3.40625 6.03125 -2.570312 C 6.03125 -1.703125 5.769531 -1.03125 5.230469 -0.558594 C 4.691406 -0.0898438 3.933594 0.152344 2.957031 0.152344 C 2.613281 0.152344 2.273438 0.121094 1.921875 0.0664062 C 1.582031 0.0117188 1.21875 -0.0664062 0.847656 -0.1875 L 0.847656 -1.273438 C 1.164062 -1.097656 1.503906 -0.96875 1.847656 -0.890625 C 2.1875 -0.800781 2.550781 -0.757812 2.933594 -0.757812 C 3.558594 -0.757812 4.042969 -0.921875 4.40625 -1.242188 C 4.769531 -1.570312 4.945312 -2.011719 4.945312 -2.570312 C 4.945312 -3.132812 4.769531 -3.570312 4.40625 -3.890625 C 4.042969 -4.21875 3.558594 -4.382812 2.933594 -4.382812 C 2.648438 -4.382812 2.363281 -4.351562 2.066406 -4.285156 C 1.78125 -4.21875 1.484375 -4.121094 1.1875 -3.988281 Z M 1.1875 -8.007812 "/>
</g>
<g id="glyph-13-0">
<path d="M 7.0625 -2.878906 L 7.625 -3.4375 L 7.0625 -4.011719 L 0.625 -4.011719 L 0.625 -4.648438 L 6.417969 -4.648438 L 5.921875 -5.152344 L 6.558594 -5.789062 L 8.667969 -3.679688 L 8.667969 -3.207031 L 6.558594 -1.097656 L 5.921875 -1.734375 L 6.417969 -2.242188 L 0.625 -2.242188 L 0.625 -2.878906 Z M 7.0625 -2.878906 "/>
</g>
</g>
<clipPath id="clip-0">
<path clip-rule="nonzero" d="M 0 0.0429688 L 413.992188 0.0429688 L 413.992188 227.574219 L 0 227.574219 Z M 0 0.0429688 "/>
</clipPath>
<clipPath id="clip-1">
<path clip-rule="nonzero" d="M 65 7.234375 L 67 7.234375 L 67 184.425781 L 65 184.425781 Z M 65 7.234375 "/>
</clipPath>
<clipPath id="clip-2">
<path clip-rule="nonzero" d="M 119 7.234375 L 121 7.234375 L 121 184.425781 L 119 184.425781 Z M 119 7.234375 "/>
</clipPath>
<clipPath id="clip-3">
<path clip-rule="nonzero" d="M 173 7.234375 L 175 7.234375 L 175 184.425781 L 173 184.425781 Z M 173 7.234375 "/>
</clipPath>
<clipPath id="clip-4">
<path clip-rule="nonzero" d="M 228 7.234375 L 229 7.234375 L 229 184.425781 L 228 184.425781 Z M 228 7.234375 "/>
</clipPath>
<clipPath id="clip-5">
<path clip-rule="nonzero" d="M 282 7.234375 L 283 7.234375 L 283 184.425781 L 282 184.425781 Z M 282 7.234375 "/>
</clipPath>
<clipPath id="clip-6">
<path clip-rule="nonzero" d="M 336 7.234375 L 337 7.234375 L 337 184.425781 L 336 184.425781 Z M 336 7.234375 "/>
</clipPath>
<clipPath id="clip-7">
<path clip-rule="nonzero" d="M 390 7.234375 L 392 7.234375 L 392 184.425781 L 390 184.425781 Z M 390 7.234375 "/>
</clipPath>
<clipPath id="clip-8">
<path clip-rule="nonzero" d="M 50.117188 176 L 406.800781 176 L 406.800781 178 L 50.117188 178 Z M 50.117188 176 "/>
</clipPath>
<clipPath id="clip-9">
<path clip-rule="nonzero" d="M 50.117188 143 L 406.800781 143 L 406.800781 145 L 50.117188 145 Z M 50.117188 143 "/>
</clipPath>
<clipPath id="clip-10">
<path clip-rule="nonzero" d="M 50.117188 111 L 406.800781 111 L 406.800781 113 L 50.117188 113 Z M 50.117188 111 "/>
</clipPath>
<clipPath id="clip-11">
<path clip-rule="nonzero" d="M 50.117188 79 L 406.800781 79 L 406.800781 81 L 50.117188 81 Z M 50.117188 79 "/>
</clipPath>
<clipPath id="clip-12">
<path clip-rule="nonzero" d="M 50.117188 46 L 406.800781 46 L 406.800781 48 L 50.117188 48 Z M 50.117188 46 "/>
</clipPath>
<clipPath id="clip-13">
<path clip-rule="nonzero" d="M 50.117188 14 L 406.800781 14 L 406.800781 16 L 50.117188 16 Z M 50.117188 14 "/>
</clipPath>
<clipPath id="clip-14">
<path clip-rule="nonzero" d="M 50.117188 95 L 406.800781 95 L 406.800781 97 L 50.117188 97 Z M 50.117188 95 "/>
</clipPath>
<clipPath id="clip-15">
<path clip-rule="nonzero" d="M 227 7.234375 L 230 7.234375 L 230 184.425781 L 227 184.425781 Z M 227 7.234375 "/>
</clipPath>
</defs>
<g clip-path="url(#clip-0)">
<path fill-rule="nonzero" fill="rgb(100%, 100%, 100%)" fill-opacity="1" d="M 0 227.574219 L 413.992188 227.574219 L 413.992188 0.0429688 L 0 0.0429688 Z M 0 227.574219 "/>
</g>
<path fill-rule="nonzero" fill="rgb(100%, 100%, 100%)" fill-opacity="1" d="M 50.117188 184.425781 L 406.800781 184.425781 L 406.800781 7.234375 L 50.117188 7.234375 Z M 50.117188 184.425781 "/>
<g clip-path="url(#clip-1)">
<path fill="none" stroke-width="0.6" stroke-linecap="square" stroke-linejoin="round" stroke="rgb(69.018555%, 69.018555%, 69.018555%)" stroke-opacity="0.25" stroke-miterlimit="10" d="M 66.408686 43.200565 L 66.408686 220.607183 " transform="matrix(0.998787, 0, 0, -0.998787, 0.000000000000011158, 227.573939)"/>
</g>
<path fill="none" stroke-width="0.8" stroke-linecap="butt" stroke-linejoin="round" stroke="rgb(0%, 0%, 0%)" stroke-opacity="1" stroke-miterlimit="10" d="M 66.408686 43.200565 L 66.408686 39.700225 " transform="matrix(0.998787, 0, 0, -0.998787, 0.000000000000011158, 227.573939)"/>
<g fill="rgb(0%, 0%, 0%)" fill-opacity="1">
<use xlink:href="#glyph-0-0" x="57.487904" y="200.523981"/>
</g>
<g fill="rgb(0%, 0%, 0%)" fill-opacity="1">
<use xlink:href="#glyph-1-0" x="67.546" y="200.523981"/>
</g>
<g clip-path="url(#clip-2)">
<path fill="none" stroke-width="0.6" stroke-linecap="square" stroke-linejoin="round" stroke="rgb(69.018555%, 69.018555%, 69.018555%)" stroke-opacity="0.25" stroke-miterlimit="10" d="M 120.517294 43.200565 L 120.517294 220.607183 " transform="matrix(0.998787, 0, 0, -0.998787, 0.000000000000011158, 227.573939)"/>
</g>
<path fill="none" stroke-width="0.8" stroke-linecap="butt" stroke-linejoin="round" stroke="rgb(0%, 0%, 0%)" stroke-opacity="1" stroke-miterlimit="10" d="M 120.517294 43.200565 L 120.517294 39.700225 " transform="matrix(0.998787, 0, 0, -0.998787, 0.000000000000011158, 227.573939)"/>
<g fill="rgb(0%, 0%, 0%)" fill-opacity="1">
<use xlink:href="#glyph-0-0" x="111.531355" y="200.523981"/>
</g>
<g fill="rgb(0%, 0%, 0%)" fill-opacity="1">
<use xlink:href="#glyph-1-1" x="121.589451" y="200.523981"/>
</g>
<g clip-path="url(#clip-3)">
<path fill="none" stroke-width="0.6" stroke-linecap="square" stroke-linejoin="round" stroke="rgb(69.018555%, 69.018555%, 69.018555%)" stroke-opacity="0.25" stroke-miterlimit="10" d="M 174.625902 43.200565 L 174.625902 220.607183 " transform="matrix(0.998787, 0, 0, -0.998787, 0.000000000000011158, 227.573939)"/>
</g>
<path fill="none" stroke-width="0.8" stroke-linecap="butt" stroke-linejoin="round" stroke="rgb(0%, 0%, 0%)" stroke-opacity="1" stroke-miterlimit="10" d="M 174.625902 43.200565 L 174.625902 39.700225 " transform="matrix(0.998787, 0, 0, -0.998787, 0.000000000000011158, 227.573939)"/>
<g fill="rgb(0%, 0%, 0%)" fill-opacity="1">
<use xlink:href="#glyph-0-0" x="165.574806" y="200.523981"/>
</g>
<g fill="rgb(0%, 0%, 0%)" fill-opacity="1">
<use xlink:href="#glyph-1-2" x="175.632902" y="200.523981"/>
</g>
<g clip-path="url(#clip-4)">
<path fill="none" stroke-width="0.6" stroke-linecap="square" stroke-linejoin="round" stroke="rgb(69.018555%, 69.018555%, 69.018555%)" stroke-opacity="0.25" stroke-miterlimit="10" d="M 228.738421 43.200565 L 228.738421 220.607183 " transform="matrix(0.998787, 0, 0, -0.998787, 0.000000000000011158, 227.573939)"/>
</g>
<path fill="none" stroke-width="0.8" stroke-linecap="butt" stroke-linejoin="round" stroke="rgb(0%, 0%, 0%)" stroke-opacity="1" stroke-miterlimit="10" d="M 228.738421 43.200565 L 228.738421 39.700225 " transform="matrix(0.998787, 0, 0, -0.998787, 0.000000000000011158, 227.573939)"/>
<g fill="rgb(0%, 0%, 0%)" fill-opacity="1">
<use xlink:href="#glyph-1-3" x="224.643404" y="200.523981"/>
</g>
<g clip-path="url(#clip-5)">
<path fill="none" stroke-width="0.6" stroke-linecap="square" stroke-linejoin="round" stroke="rgb(69.018555%, 69.018555%, 69.018555%)" stroke-opacity="0.25" stroke-miterlimit="10" d="M 282.847029 43.200565 L 282.847029 220.607183 " transform="matrix(0.998787, 0, 0, -0.998787, 0.000000000000011158, 227.573939)"/>
</g>
<path fill="none" stroke-width="0.8" stroke-linecap="butt" stroke-linejoin="round" stroke="rgb(0%, 0%, 0%)" stroke-opacity="1" stroke-miterlimit="10" d="M 282.847029 43.200565 L 282.847029 39.700225 " transform="matrix(0.998787, 0, 0, -0.998787, 0.000000000000011158, 227.573939)"/>
<g fill="rgb(0%, 0%, 0%)" fill-opacity="1">
<use xlink:href="#glyph-1-2" x="278.686855" y="200.523981"/>
</g>
<g clip-path="url(#clip-6)">
<path fill="none" stroke-width="0.6" stroke-linecap="square" stroke-linejoin="round" stroke="rgb(69.018555%, 69.018555%, 69.018555%)" stroke-opacity="0.25" stroke-miterlimit="10" d="M 336.955637 43.200565 L 336.955637 220.607183 " transform="matrix(0.998787, 0, 0, -0.998787, 0.000000000000011158, 227.573939)"/>
</g>
<path fill="none" stroke-width="0.8" stroke-linecap="butt" stroke-linejoin="round" stroke="rgb(0%, 0%, 0%)" stroke-opacity="1" stroke-miterlimit="10" d="M 336.955637 43.200565 L 336.955637 39.700225 " transform="matrix(0.998787, 0, 0, -0.998787, 0.000000000000011158, 227.573939)"/>
<g fill="rgb(0%, 0%, 0%)" fill-opacity="1">
<use xlink:href="#glyph-1-1" x="332.730306" y="200.523981"/>
</g>
<g clip-path="url(#clip-7)">
<path fill="none" stroke-width="0.6" stroke-linecap="square" stroke-linejoin="round" stroke="rgb(69.018555%, 69.018555%, 69.018555%)" stroke-opacity="0.25" stroke-miterlimit="10" d="M 391.064245 43.200565 L 391.064245 220.607183 " transform="matrix(0.998787, 0, 0, -0.998787, 0.000000000000011158, 227.573939)"/>
</g>
<path fill="none" stroke-width="0.8" stroke-linecap="butt" stroke-linejoin="round" stroke="rgb(0%, 0%, 0%)" stroke-opacity="1" stroke-miterlimit="10" d="M 391.064245 43.200565 L 391.064245 39.700225 " transform="matrix(0.998787, 0, 0, -0.998787, 0.000000000000011158, 227.573939)"/>
<g fill="rgb(0%, 0%, 0%)" fill-opacity="1">
<use xlink:href="#glyph-1-0" x="386.773757" y="200.523981"/>
</g>
<g fill="rgb(0%, 0%, 0%)" fill-opacity="1">
<use xlink:href="#glyph-2-0" x="155.048245" y="216.574799"/>
</g>
<g fill="rgb(0%, 0%, 0%)" fill-opacity="1">
<use xlink:href="#glyph-1-4" x="163.674486" y="216.574799"/>
</g>
<g fill="rgb(0%, 0%, 0%)" fill-opacity="1">
<use xlink:href="#glyph-3-0" x="176.052031" y="216.574799"/>
</g>
<g fill="rgb(0%, 0%, 0%)" fill-opacity="1">
<use xlink:href="#glyph-4-0" x="183.700944" y="218.372609"/>
</g>
<g fill="rgb(0%, 0%, 0%)" fill-opacity="1">
<use xlink:href="#glyph-1-5" x="191.701578" y="216.574799"/>
</g>
<g fill="rgb(0%, 0%, 0%)" fill-opacity="1">
<use xlink:href="#glyph-3-0" x="204.079123" y="216.574799"/>
</g>
<g fill="rgb(0%, 0%, 0%)" fill-opacity="1">
<use xlink:href="#glyph-4-1" x="211.728036" y="218.372609"/>
</g>
<g fill="rgb(0%, 0%, 0%)" fill-opacity="1">
<use xlink:href="#glyph-2-1" x="217.393615" y="216.574799"/>
</g>
<g fill="rgb(0%, 0%, 0%)" fill-opacity="1">
<use xlink:href="#glyph-4-1" x="224.486563" y="218.372609"/>
</g>
<g fill="rgb(0%, 0%, 0%)" fill-opacity="1">
<use xlink:href="#glyph-1-5" x="232.487197" y="216.574799"/>
</g>
<g fill="rgb(0%, 0%, 0%)" fill-opacity="1">
<use xlink:href="#glyph-0-1" x="247.199796" y="216.574799"/>
</g>
<g fill="rgb(0%, 0%, 0%)" fill-opacity="1">
<use xlink:href="#glyph-1-5" x="263.855348" y="216.574799"/>
</g>
<g fill="rgb(0%, 0%, 0%)" fill-opacity="1">
<use xlink:href="#glyph-3-0" x="276.232893" y="216.574799"/>
</g>
<g fill="rgb(0%, 0%, 0%)" fill-opacity="1">
<use xlink:href="#glyph-5-0" x="283.881806" y="218.372609"/>
</g>
<g fill="rgb(0%, 0%, 0%)" fill-opacity="1">
<use xlink:href="#glyph-2-1" x="289.068085" y="216.574799"/>
</g>
<g fill="rgb(0%, 0%, 0%)" fill-opacity="1">
<use xlink:href="#glyph-5-0" x="296.161032" y="218.372609"/>
</g>
<g clip-path="url(#clip-8)">
<path fill="none" stroke-width="0.6" stroke-linecap="square" stroke-linejoin="round" stroke="rgb(69.018555%, 69.018555%, 69.018555%)" stroke-opacity="0.25" stroke-miterlimit="10" d="M 50.178059 50.862203 L 407.294872 50.862203 " transform="matrix(0.998787, 0, 0, -0.998787, 0.000000000000011158, 227.573939)"/>
</g>
<path fill="none" stroke-width="0.8" stroke-linecap="butt" stroke-linejoin="round" stroke="rgb(0%, 0%, 0%)" stroke-opacity="1" stroke-miterlimit="10" d="M 50.178059 50.862203 L 46.677719 50.862203 " transform="matrix(0.998787, 0, 0, -0.998787, 0.000000000000011158, 227.573939)"/>
<g fill="rgb(0%, 0%, 0%)" fill-opacity="1">
<use xlink:href="#glyph-1-3" x="24.053598" y="181.325472"/>
</g>
<g fill="rgb(0%, 0%, 0%)" fill-opacity="1">
<use xlink:href="#glyph-1-6" x="31.682191" y="181.325472"/>
</g>
<g fill="rgb(0%, 0%, 0%)" fill-opacity="1">
<use xlink:href="#glyph-1-3" x="35.491611" y="181.325472"/>
</g>
<g clip-path="url(#clip-9)">
<path fill="none" stroke-width="0.6" stroke-linecap="square" stroke-linejoin="round" stroke="rgb(69.018555%, 69.018555%, 69.018555%)" stroke-opacity="0.25" stroke-miterlimit="10" d="M 50.178059 83.280436 L 407.294872 83.280436 " transform="matrix(0.998787, 0, 0, -0.998787, 0.000000000000011158, 227.573939)"/>
</g>
<path fill="none" stroke-width="0.8" stroke-linecap="butt" stroke-linejoin="round" stroke="rgb(0%, 0%, 0%)" stroke-opacity="1" stroke-miterlimit="10" d="M 50.178059 83.280436 L 46.677719 83.280436 " transform="matrix(0.998787, 0, 0, -0.998787, 0.000000000000011158, 227.573939)"/>
<g fill="rgb(0%, 0%, 0%)" fill-opacity="1">
<use xlink:href="#glyph-1-3" x="24.053598" y="148.948489"/>
</g>
<g fill="rgb(0%, 0%, 0%)" fill-opacity="1">
<use xlink:href="#glyph-1-6" x="31.682191" y="148.948489"/>
</g>
<g fill="rgb(0%, 0%, 0%)" fill-opacity="1">
<use xlink:href="#glyph-1-2" x="35.491611" y="148.948489"/>
</g>
<g clip-path="url(#clip-10)">
<path fill="none" stroke-width="0.6" stroke-linecap="square" stroke-linejoin="round" stroke="rgb(69.018555%, 69.018555%, 69.018555%)" stroke-opacity="0.25" stroke-miterlimit="10" d="M 50.178059 115.694758 L 407.294872 115.694758 " transform="matrix(0.998787, 0, 0, -0.998787, 0.000000000000011158, 227.573939)"/>
</g>
<path fill="none" stroke-width="0.8" stroke-linecap="butt" stroke-linejoin="round" stroke="rgb(0%, 0%, 0%)" stroke-opacity="1" stroke-miterlimit="10" d="M 50.178059 115.694758 L 46.677719 115.694758 " transform="matrix(0.998787, 0, 0, -0.998787, 0.000000000000011158, 227.573939)"/>
<g fill="rgb(0%, 0%, 0%)" fill-opacity="1">
<use xlink:href="#glyph-1-3" x="24.053598" y="116.571507"/>
</g>
<g fill="rgb(0%, 0%, 0%)" fill-opacity="1">
<use xlink:href="#glyph-1-6" x="31.682191" y="116.571507"/>
</g>
<g fill="rgb(0%, 0%, 0%)" fill-opacity="1">
<use xlink:href="#glyph-1-1" x="35.491611" y="116.571507"/>
</g>
<g clip-path="url(#clip-11)">
<path fill="none" stroke-width="0.6" stroke-linecap="square" stroke-linejoin="round" stroke="rgb(69.018555%, 69.018555%, 69.018555%)" stroke-opacity="0.25" stroke-miterlimit="10" d="M 50.178059 148.11299 L 407.294872 148.11299 " transform="matrix(0.998787, 0, 0, -0.998787, 0.000000000000011158, 227.573939)"/>
</g>
<path fill="none" stroke-width="0.8" stroke-linecap="butt" stroke-linejoin="round" stroke="rgb(0%, 0%, 0%)" stroke-opacity="1" stroke-miterlimit="10" d="M 50.178059 148.11299 L 46.677719 148.11299 " transform="matrix(0.998787, 0, 0, -0.998787, 0.000000000000011158, 227.573939)"/>
<g fill="rgb(0%, 0%, 0%)" fill-opacity="1">
<use xlink:href="#glyph-1-3" x="24.053598" y="84.194525"/>
</g>
<g fill="rgb(0%, 0%, 0%)" fill-opacity="1">
<use xlink:href="#glyph-1-6" x="31.682191" y="84.194525"/>
</g>
<g fill="rgb(0%, 0%, 0%)" fill-opacity="1">
<use xlink:href="#glyph-1-0" x="35.491611" y="84.194525"/>
</g>
<g clip-path="url(#clip-12)">
<path fill="none" stroke-width="0.6" stroke-linecap="square" stroke-linejoin="round" stroke="rgb(69.018555%, 69.018555%, 69.018555%)" stroke-opacity="0.25" stroke-miterlimit="10" d="M 50.178059 180.527312 L 407.294872 180.527312 " transform="matrix(0.998787, 0, 0, -0.998787, 0.000000000000011158, 227.573939)"/>
</g>
<path fill="none" stroke-width="0.8" stroke-linecap="butt" stroke-linejoin="round" stroke="rgb(0%, 0%, 0%)" stroke-opacity="1" stroke-miterlimit="10" d="M 50.178059 180.527312 L 46.677719 180.527312 " transform="matrix(0.998787, 0, 0, -0.998787, 0.000000000000011158, 227.573939)"/>
<g fill="rgb(0%, 0%, 0%)" fill-opacity="1">
<use xlink:href="#glyph-1-3" x="24.053598" y="51.817543"/>
</g>
<g fill="rgb(0%, 0%, 0%)" fill-opacity="1">
<use xlink:href="#glyph-1-6" x="31.682191" y="51.817543"/>
</g>
<g fill="rgb(0%, 0%, 0%)" fill-opacity="1">
<use xlink:href="#glyph-1-7" x="35.491611" y="51.817543"/>
</g>
<g clip-path="url(#clip-13)">
<path fill="none" stroke-width="0.6" stroke-linecap="square" stroke-linejoin="round" stroke="rgb(69.018555%, 69.018555%, 69.018555%)" stroke-opacity="0.25" stroke-miterlimit="10" d="M 50.178059 212.945545 L 407.294872 212.945545 " transform="matrix(0.998787, 0, 0, -0.998787, 0.000000000000011158, 227.573939)"/>
</g>
<path fill="none" stroke-width="0.8" stroke-linecap="butt" stroke-linejoin="round" stroke="rgb(0%, 0%, 0%)" stroke-opacity="1" stroke-miterlimit="10" d="M 50.178059 212.945545 L 46.677719 212.945545 " transform="matrix(0.998787, 0, 0, -0.998787, 0.000000000000011158, 227.573939)"/>
<g fill="rgb(0%, 0%, 0%)" fill-opacity="1">
<use xlink:href="#glyph-1-8" x="24.053598" y="19.44056"/>
</g>
<g fill="rgb(0%, 0%, 0%)" fill-opacity="1">
<use xlink:href="#glyph-1-6" x="31.682191" y="19.44056"/>
</g>
<g fill="rgb(0%, 0%, 0%)" fill-opacity="1">
<use xlink:href="#glyph-1-3" x="35.491611" y="19.44056"/>
</g>
<g fill="rgb(0%, 0%, 0%)" fill-opacity="1">
<use xlink:href="#glyph-6-0" x="16.729431" y="146.768084"/>
</g>
<g fill="rgb(0%, 0%, 0%)" fill-opacity="1">
<use xlink:href="#glyph-7-0" x="16.729431" y="139.171842"/>
</g>
<g fill="rgb(0%, 0%, 0%)" fill-opacity="1">
<use xlink:href="#glyph-8-0" x="16.729431" y="134.49588"/>
</g>
<g fill="rgb(0%, 0%, 0%)" fill-opacity="1">
<use xlink:href="#glyph-7-1" x="16.729431" y="128.204693"/>
</g>
<g fill="rgb(0%, 0%, 0%)" fill-opacity="1">
<use xlink:href="#glyph-7-2" x="16.729431" y="121.193677"/>
</g>
<g fill="rgb(0%, 0%, 0%)" fill-opacity="1">
<use xlink:href="#glyph-7-3" x="16.729431" y="108.816133"/>
</g>
<g fill="rgb(0%, 0%, 0%)" fill-opacity="1">
<use xlink:href="#glyph-7-4" x="16.729431" y="101.190629"/>
</g>
<g fill="rgb(0%, 0%, 0%)" fill-opacity="1">
<use xlink:href="#glyph-7-0" x="16.729431" y="97.152565"/>
</g>
<g fill="rgb(0%, 0%, 0%)" fill-opacity="1">
<use xlink:href="#glyph-7-3" x="16.729431" y="92.476603"/>
</g>
<g fill="rgb(0%, 0%, 0%)" fill-opacity="1">
<use xlink:href="#glyph-7-5" x="16.729431" y="82.516045"/>
</g>
<g fill="rgb(0%, 0%, 0%)" fill-opacity="1">
<use xlink:href="#glyph-8-1" x="16.729431" y="70.1385"/>
</g>
<g fill="rgb(0%, 0%, 0%)" fill-opacity="1">
<use xlink:href="#glyph-9-0" x="11.779443" y="62.207508"/>
</g>
<g fill="rgb(0%, 0%, 0%)" fill-opacity="1">
<use xlink:href="#glyph-10-0" x="11.779443" y="55.177765"/>
</g>
<g fill="rgb(0%, 0%, 0%)" fill-opacity="1">
<use xlink:href="#glyph-7-1" x="16.729431" y="50.446207"/>
</g>
<path fill="none" stroke-width="2.2" stroke-linecap="square" stroke-linejoin="round" stroke="rgb(18.03894%, 42.744446%, 64.312744%)" stroke-opacity="1" stroke-miterlimit="10" d="M 66.408686 51.265035 L 83.781323 51.624847 L 96.812756 52.090255 L 107.669677 52.688637 L 116.355995 53.36915 L 123.955058 54.166993 L 130.470774 55.043056 L 136.986491 56.142045 L 142.414951 57.268412 L 147.843412 58.625527 L 153.271872 60.248589 L 157.616987 61.773877 L 161.958191 63.526003 L 166.303305 65.528432 L 170.644509 67.816364 L 174.989624 70.413264 L 179.330828 73.34651 L 182.588686 75.779148 L 185.846545 78.426892 L 189.104403 81.28974 L 193.449518 85.45886 L 197.790722 90.026901 L 202.135836 94.989953 L 206.47704 100.32846 L 210.822155 106.011135 L 216.250615 113.528067 L 222.766332 122.996584 L 242.309571 151.816702 L 247.738032 159.247592 L 252.083146 164.848136 L 256.42435 170.09669 L 260.769465 174.961967 L 265.110669 179.432234 L 269.455784 183.499668 L 273.796988 187.172092 L 278.142102 190.465149 L 282.483306 193.394484 L 286.828421 195.991384 L 291.169625 198.279316 L 295.51474 200.281745 L 299.855943 202.033871 L 304.201058 203.559159 L 308.542262 204.881075 L 313.970722 206.289033 L 319.399183 207.45842 L 325.914899 208.60043 L 332.430616 209.511692 L 340.029678 210.336912 L 348.715997 211.044802 L 358.489572 211.615807 L 370.433749 212.089037 L 385.635784 212.456671 L 391.064245 212.542713 " transform="matrix(0.998787, 0, 0, -0.998787, 0.000000000000011158, 227.573939)"/>
<g clip-path="url(#clip-14)">
<path fill="none" stroke-width="1.2" stroke-linecap="butt" stroke-linejoin="round" stroke="rgb(54.901123%, 58.430481%, 61.959839%)" stroke-opacity="1" stroke-dasharray="1.2 1.98" stroke-miterlimit="10" d="M 50.178059 131.90583 L 407.294872 131.90583 " transform="matrix(0.998787, 0, 0, -0.998787, 0.000000000000011158, 227.573939)"/>
</g>
<g clip-path="url(#clip-15)">
<path fill="none" stroke-width="1.2" stroke-linecap="butt" stroke-linejoin="round" stroke="rgb(54.901123%, 58.430481%, 61.959839%)" stroke-opacity="1" stroke-dasharray="1.2 1.98" stroke-miterlimit="10" d="M 228.738421 43.200565 L 228.738421 220.607183 " transform="matrix(0.998787, 0, 0, -0.998787, 0.000000000000011158, 227.573939)"/>
</g>
<path fill="none" stroke-width="0.8" stroke-linecap="square" stroke-linejoin="miter" stroke="rgb(0%, 0%, 0%)" stroke-opacity="1" stroke-miterlimit="10" d="M 50.178059 43.200565 L 50.178059 220.607183 " transform="matrix(0.998787, 0, 0, -0.998787, 0.000000000000011158, 227.573939)"/>
<path fill="none" stroke-width="0.8" stroke-linecap="square" stroke-linejoin="miter" stroke="rgb(0%, 0%, 0%)" stroke-opacity="1" stroke-miterlimit="10" d="M 50.178059 43.200565 L 407.294872 43.200565 " transform="matrix(0.998787, 0, 0, -0.998787, 0.000000000000011158, 227.573939)"/>
<path fill="none" stroke-width="1" stroke-linecap="round" stroke-linejoin="round" stroke="rgb(35.68573%, 39.607239%, 43.920898%)" stroke-opacity="1" stroke-miterlimit="10" d="M 270.840276 120.728207 C 257.449031 124.27939 244.421508 127.74062 231.753797 131.104076 " transform="matrix(0.998787, 0, 0, -0.998787, 0.000000000000011158, 227.573939)"/>
<path fill="none" stroke-width="1" stroke-linecap="round" stroke-linejoin="round" stroke="rgb(35.68573%, 39.607239%, 43.920898%)" stroke-opacity="1" stroke-miterlimit="10" d="M 235.441865 127.846217 L 231.753797 131.104076 L 236.568231 132.101379 " transform="matrix(0.998787, 0, 0, -0.998787, 0.000000000000011158, 227.573939)"/>
<g fill="rgb(0%, 0%, 0%)" fill-opacity="1">
<use xlink:href="#glyph-11-0" x="263.587325" y="117.66672"/>
</g>
<g fill="rgb(0%, 0%, 0%)" fill-opacity="1">
<use xlink:href="#glyph-12-0" x="271.494713" y="117.66672"/>
</g>
<g fill="rgb(0%, 0%, 0%)" fill-opacity="1">
<use xlink:href="#glyph-12-1" x="282.840795" y="117.66672"/>
</g>
<g fill="rgb(0%, 0%, 0%)" fill-opacity="1">
<use xlink:href="#glyph-13-0" x="291.971307" y="117.66672"/>
</g>
<g fill="rgb(0%, 0%, 0%)" fill-opacity="1">
<use xlink:href="#glyph-11-1" x="303.31739" y="117.66672"/>
</g>
<g fill="rgb(0%, 0%, 0%)" fill-opacity="1">
<use xlink:href="#glyph-12-0" x="312.431808" y="117.66672"/>
</g>
<g fill="rgb(0%, 0%, 0%)" fill-opacity="1">
<use xlink:href="#glyph-12-1" x="323.777891" y="117.66672"/>
</g>
<g fill="rgb(0%, 0%, 0%)" fill-opacity="1">
<use xlink:href="#glyph-12-2" x="330.767936" y="117.66672"/>
</g>
<g fill="rgb(0%, 0%, 0%)" fill-opacity="1">
<use xlink:href="#glyph-12-3" x="334.260276" y="117.66672"/>
</g>
</svg>
