<?xml version="1.0" encoding="UTF-8"?>
<svg xmlns="http://www.w3.org/2000/svg" xmlns:xlink="http://www.w3.org/1999/xlink" width="629.374375" height="182.645" viewBox="0 0 629.374375 182.645">
<defs>
<g>
<g id="glyph-0-0">
<path d="M 1.269531 -4.25 L 8.765625 -4.25 L 8.765625 -3.257812 L 1.269531 -3.257812 Z M 1.269531 -4.25 "/>
</g>
<g id="glyph-1-0">
<path d="M 2.300781 -0.992188 L 6.417969 -0.992188 L 6.417969 0 L 0.875 0 L 0.875 -0.992188 C 1.316406 -1.460938 1.929688 -2.082031 2.707031 -2.863281 C 3.484375 -3.640625 3.964844 -4.144531 4.167969 -4.371094 C 4.550781 -4.789062 4.816406 -5.148438 4.957031 -5.449219 C 5.113281 -5.75 5.1875 -6.035156 5.1875 -6.324219 C 5.1875 -6.789062 5.019531 -7.160156 4.695312 -7.460938 C 4.371094 -7.75 3.953125 -7.894531 3.425781 -7.894531 C 3.054688 -7.894531 2.671875 -7.832031 2.25 -7.699219 C 1.84375 -7.570312 1.402344 -7.378906 0.933594 -7.113281 L 0.933594 -8.3125 C 1.414062 -8.503906 1.855469 -8.648438 2.261719 -8.742188 C 2.683594 -8.839844 3.054688 -8.886719 3.402344 -8.886719 C 4.300781 -8.886719 5.03125 -8.660156 5.570312 -8.214844 C 6.109375 -7.761719 6.371094 -7.148438 6.371094 -6.394531 C 6.371094 -6.035156 6.300781 -5.699219 6.167969 -5.378906 C 6.035156 -5.054688 5.796875 -4.683594 5.4375 -4.238281 C 5.339844 -4.132812 5.03125 -3.796875 4.503906 -3.257812 C 3.988281 -2.71875 3.246094 -1.964844 2.300781 -0.992188 Z M 2.300781 -0.992188 "/>
</g>
<g id="glyph-1-1">
<path d="M 1.28125 -1.484375 L 2.515625 -1.484375 L 2.515625 0 L 1.28125 0 Z M 1.28125 -1.484375 "/>
</g>
<g id="glyph-1-2">
<path d="M 1.292969 -8.730469 L 5.929688 -8.730469 L 5.929688 -7.738281 L 2.371094 -7.738281 L 2.371094 -5.59375 C 2.550781 -5.652344 2.71875 -5.699219 2.886719 -5.726562 C 3.066406 -5.761719 3.234375 -5.773438 3.402344 -5.773438 C 4.371094 -5.773438 5.148438 -5.507812 5.726562 -4.96875 C 6.289062 -4.429688 6.574219 -3.710938 6.574219 -2.800781 C 6.574219 -1.855469 6.289062 -1.125 5.699219 -0.609375 C 5.113281 -0.0976562 4.289062 0.167969 3.222656 0.167969 C 2.851562 0.167969 2.480469 0.132812 2.097656 0.0703125 C 1.726562 0.0117188 1.328125 -0.0703125 0.921875 -0.203125 L 0.921875 -1.390625 C 1.269531 -1.199219 1.640625 -1.054688 2.011719 -0.96875 C 2.382812 -0.875 2.777344 -0.828125 3.199219 -0.828125 C 3.878906 -0.828125 4.40625 -1.007812 4.800781 -1.351562 C 5.199219 -1.710938 5.390625 -2.191406 5.390625 -2.800781 C 5.390625 -3.414062 5.199219 -3.890625 4.800781 -4.238281 C 4.40625 -4.597656 3.878906 -4.777344 3.199219 -4.777344 C 2.886719 -4.777344 2.574219 -4.742188 2.25 -4.671875 C 1.941406 -4.597656 1.617188 -4.492188 1.292969 -4.347656 Z M 1.292969 -8.730469 "/>
</g>
<g id="glyph-1-3">
<path d="M 3.808594 -7.953125 C 3.199219 -7.953125 2.742188 -7.652344 2.429688 -7.054688 C 2.132812 -6.457031 1.976562 -5.558594 1.976562 -4.359375 C 1.976562 -3.160156 2.132812 -2.261719 2.429688 -1.664062 C 2.742188 -1.066406 3.199219 -0.765625 3.808594 -0.765625 C 4.417969 -0.765625 4.886719 -1.066406 5.1875 -1.664062 C 5.484375 -2.261719 5.640625 -3.160156 5.640625 -4.359375 C 5.640625 -5.558594 5.484375 -6.457031 5.1875 -7.054688 C 4.886719 -7.652344 4.417969 -7.953125 3.808594 -7.953125 Z M 3.808594 -8.886719 C 4.777344 -8.886719 5.535156 -8.503906 6.046875 -7.726562 C 6.5625 -6.945312 6.828125 -5.832031 6.828125 -4.359375 C 6.828125 -2.886719 6.5625 -1.773438 6.046875 -0.992188 C 5.535156 -0.214844 4.777344 0.167969 3.808594 0.167969 C 2.828125 0.167969 2.070312 -0.214844 1.558594 -0.992188 C 1.042969 -1.773438 0.789062 -2.886719 0.789062 -4.359375 C 0.789062 -5.832031 1.042969 -6.945312 1.558594 -7.726562 C 2.070312 -8.503906 2.828125 -8.886719 3.808594 -8.886719 Z M 3.808594 -8.886719 "/>
</g>
<g id="glyph-1-4">
<path d="M 0.980469 -8.730469 L 6.597656 -8.730469 L 6.597656 -8.226562 L 3.425781 0 L 2.191406 0 L 5.175781 -7.738281 L 0.980469 -7.738281 Z M 0.980469 -8.730469 "/>
</g>
<g id="glyph-1-5">
<path d="M 1.484375 -0.992188 L 3.414062 -0.992188 L 3.414062 -7.652344 L 1.316406 -7.234375 L 1.316406 -8.3125 L 3.402344 -8.730469 L 4.585938 -8.730469 L 4.585938 -0.992188 L 6.515625 -0.992188 L 6.515625 0 L 1.484375 0 Z M 1.484375 -0.992188 "/>
</g>
<g id="glyph-1-6">
<path d="M 5.304688 -6.359375 L 5.304688 -5.339844 C 5.007812 -5.496094 4.683594 -5.605469 4.359375 -5.6875 C 4.035156 -5.773438 3.6875 -5.808594 3.339844 -5.808594 C 2.800781 -5.808594 2.40625 -5.726562 2.132812 -5.558594 C 1.867188 -5.402344 1.738281 -5.148438 1.738281 -4.828125 C 1.738281 -4.574219 1.832031 -4.382812 2.023438 -4.238281 C 2.214844 -4.097656 2.597656 -3.964844 3.175781 -3.832031 L 3.546875 -3.75 C 4.3125 -3.582031 4.851562 -3.351562 5.175781 -3.054688 C 5.496094 -2.753906 5.652344 -2.347656 5.652344 -1.808594 C 5.652344 -1.199219 5.414062 -0.71875 4.933594 -0.359375 C 4.457031 -0.0117188 3.796875 0.167969 2.945312 0.167969 C 2.597656 0.167969 2.226562 0.132812 1.84375 0.0585938 C 1.472656 0 1.066406 -0.109375 0.648438 -0.238281 L 0.648438 -1.351562 C 1.042969 -1.148438 1.4375 -0.992188 1.820312 -0.886719 C 2.214844 -0.777344 2.597656 -0.730469 2.96875 -0.730469 C 3.484375 -0.730469 3.867188 -0.8125 4.144531 -0.992188 C 4.417969 -1.160156 4.550781 -1.402344 4.550781 -1.726562 C 4.550781 -2.023438 4.457031 -2.238281 4.25 -2.394531 C 4.058594 -2.550781 3.628906 -2.707031 2.957031 -2.851562 L 2.585938 -2.933594 C 1.917969 -3.078125 1.4375 -3.292969 1.136719 -3.582031 C 0.839844 -3.867188 0.695312 -4.265625 0.695312 -4.777344 C 0.695312 -5.390625 0.910156 -5.867188 1.351562 -6.203125 C 1.785156 -6.539062 2.40625 -6.707031 3.210938 -6.707031 C 3.605469 -6.707031 3.988281 -6.683594 4.335938 -6.625 C 4.683594 -6.5625 5.007812 -6.46875 5.304688 -6.359375 Z M 5.304688 -6.359375 "/>
</g>
<g id="glyph-1-7">
<path d="M 1.125 -6.550781 L 2.203125 -6.550781 L 2.203125 0 L 1.125 0 Z M 1.125 -9.101562 L 2.203125 -9.101562 L 2.203125 -7.738281 L 1.125 -7.738281 Z M 1.125 -9.101562 "/>
</g>
<g id="glyph-1-8">
<path d="M 5.4375 -3.351562 C 5.4375 -4.132812 5.28125 -4.730469 4.957031 -5.160156 C 4.636719 -5.59375 4.191406 -5.808594 3.605469 -5.808594 C 3.03125 -5.808594 2.574219 -5.59375 2.25 -5.160156 C 1.929688 -4.730469 1.773438 -4.132812 1.773438 -3.351562 C 1.773438 -2.574219 1.929688 -1.976562 2.25 -1.546875 C 2.574219 -1.113281 3.03125 -0.898438 3.605469 -0.898438 C 4.191406 -0.898438 4.636719 -1.113281 4.957031 -1.546875 C 5.28125 -1.976562 5.4375 -2.574219 5.4375 -3.351562 Z M 6.515625 -0.8125 C 6.515625 0.300781 6.265625 1.136719 5.773438 1.675781 C 5.28125 2.214844 4.515625 2.492188 3.496094 2.492188 C 3.125 2.492188 2.765625 2.46875 2.429688 2.40625 C 2.097656 2.347656 1.773438 2.261719 1.449219 2.144531 L 1.449219 1.101562 C 1.773438 1.269531 2.082031 1.402344 2.382812 1.484375 C 2.695312 1.570312 3.007812 1.605469 3.328125 1.605469 C 4.035156 1.605469 4.5625 1.414062 4.910156 1.042969 C 5.257812 0.683594 5.4375 0.132812 5.4375 -0.621094 L 5.4375 -1.148438 C 5.210938 -0.765625 4.933594 -0.480469 4.585938 -0.289062 C 4.238281 -0.0976562 3.820312 0 3.339844 0 C 2.539062 0 1.890625 -0.3125 1.402344 -0.921875 C 0.910156 -1.53125 0.660156 -2.335938 0.660156 -3.351562 C 0.660156 -4.371094 0.910156 -5.175781 1.402344 -5.785156 C 1.890625 -6.394531 2.539062 -6.707031 3.339844 -6.707031 C 3.820312 -6.707031 4.238281 -6.609375 4.585938 -6.417969 C 4.933594 -6.226562 5.210938 -5.941406 5.4375 -5.558594 L 5.4375 -6.550781 L 6.515625 -6.550781 Z M 6.515625 -0.8125 "/>
</g>
<g id="glyph-1-9">
<path d="M 6.226562 -5.292969 C 6.503906 -5.773438 6.828125 -6.132812 7.199219 -6.359375 C 7.570312 -6.585938 8 -6.707031 8.515625 -6.707031 C 9.199219 -6.707031 9.726562 -6.46875 10.097656 -5.988281 C 10.46875 -5.507812 10.648438 -4.828125 10.648438 -3.953125 L 10.648438 0 L 9.570312 0 L 9.570312 -3.917969 C 9.570312 -4.550781 9.460938 -5.019531 9.234375 -5.316406 C 9.007812 -5.617188 8.671875 -5.773438 8.214844 -5.773438 C 7.652344 -5.773438 7.222656 -5.59375 6.898438 -5.222656 C 6.574219 -4.851562 6.40625 -4.335938 6.40625 -3.699219 L 6.40625 0 L 5.328125 0 L 5.328125 -3.917969 C 5.328125 -4.550781 5.222656 -5.019531 4.996094 -5.316406 C 4.765625 -5.617188 4.429688 -5.773438 3.964844 -5.773438 C 3.414062 -5.773438 2.980469 -5.582031 2.660156 -5.210938 C 2.335938 -4.839844 2.167969 -4.335938 2.167969 -3.699219 L 2.167969 0 L 1.089844 0 L 1.089844 -6.550781 L 2.167969 -6.550781 L 2.167969 -5.535156 C 2.417969 -5.929688 2.707031 -6.226562 3.054688 -6.417969 C 3.402344 -6.609375 3.808594 -6.707031 4.277344 -6.707031 C 4.753906 -6.707031 5.160156 -6.585938 5.484375 -6.347656 C 5.820312 -6.109375 6.070312 -5.761719 6.226562 -5.292969 Z M 6.226562 -5.292969 "/>
</g>
<g id="glyph-1-10">
<path d="M 3.664062 -5.796875 C 3.089844 -5.796875 2.636719 -5.570312 2.300781 -5.113281 C 1.964844 -4.671875 1.796875 -4.046875 1.796875 -3.269531 C 1.796875 -2.492188 1.964844 -1.867188 2.289062 -1.414062 C 2.621094 -0.96875 3.078125 -0.742188 3.664062 -0.742188 C 4.238281 -0.742188 4.695312 -0.96875 5.03125 -1.425781 C 5.367188 -1.867188 5.535156 -2.492188 5.535156 -3.269531 C 5.535156 -4.046875 5.367188 -4.660156 5.03125 -5.113281 C 4.695312 -5.570312 4.238281 -5.796875 3.664062 -5.796875 Z M 3.664062 -6.707031 C 4.597656 -6.707031 5.328125 -6.40625 5.867188 -5.796875 C 6.40625 -5.1875 6.671875 -4.347656 6.671875 -3.269531 C 6.671875 -2.203125 6.40625 -1.351562 5.867188 -0.742188 C 5.328125 -0.132812 4.597656 0.167969 3.664062 0.167969 C 2.71875 0.167969 1.988281 -0.132812 1.460938 -0.742188 C 0.921875 -1.351562 0.660156 -2.203125 0.660156 -3.269531 C 0.660156 -4.347656 0.921875 -5.1875 1.460938 -5.796875 C 1.988281 -6.40625 2.71875 -6.707031 3.664062 -6.707031 Z M 3.664062 -6.707031 "/>
</g>
<g id="glyph-1-11">
<path d="M 5.4375 -5.558594 L 5.4375 -9.101562 L 6.515625 -9.101562 L 6.515625 0 L 5.4375 0 L 5.4375 -0.980469 C 5.210938 -0.585938 4.921875 -0.300781 4.574219 -0.109375 C 4.226562 0.0703125 3.820312 0.167969 3.339844 0.167969 C 2.550781 0.167969 1.90625 -0.144531 1.402344 -0.777344 C 0.910156 -1.414062 0.660156 -2.238281 0.660156 -3.269531 C 0.660156 -4.300781 0.910156 -5.125 1.402344 -5.761719 C 1.90625 -6.394531 2.550781 -6.707031 3.339844 -6.707031 C 3.820312 -6.707031 4.226562 -6.609375 4.574219 -6.417969 C 4.921875 -6.238281 5.210938 -5.953125 5.4375 -5.558594 Z M 1.773438 -3.269531 C 1.773438 -2.480469 1.929688 -1.855469 2.25 -1.402344 C 2.574219 -0.957031 3.03125 -0.730469 3.605469 -0.730469 C 4.167969 -0.730469 4.621094 -0.957031 4.945312 -1.402344 C 5.269531 -1.855469 5.4375 -2.480469 5.4375 -3.269531 C 5.4375 -4.058594 5.269531 -4.683594 4.945312 -5.125 C 4.621094 -5.582031 4.167969 -5.808594 3.605469 -5.808594 C 3.03125 -5.808594 2.574219 -5.582031 2.25 -5.125 C 1.929688 -4.683594 1.773438 -4.058594 1.773438 -3.269531 Z M 1.773438 -3.269531 "/>
</g>
<g id="glyph-1-12">
<path d="M 2.191406 -8.40625 L 2.191406 -6.550781 L 4.40625 -6.550781 L 4.40625 -5.714844 L 2.191406 -5.714844 L 2.191406 -2.15625 C 2.191406 -1.617188 2.261719 -1.28125 2.40625 -1.125 C 2.5625 -0.96875 2.863281 -0.898438 3.304688 -0.898438 L 4.40625 -0.898438 L 4.40625 0 L 3.304688 0 C 2.480469 0 1.90625 -0.15625 1.582031 -0.46875 C 1.269531 -0.777344 1.113281 -1.339844 1.113281 -2.15625 L 1.113281 -5.714844 L 0.324219 -5.714844 L 0.324219 -6.550781 L 1.113281 -6.550781 L 1.113281 -8.40625 Z M 2.191406 -8.40625 "/>
</g>
<g id="glyph-1-13">
<path d="M 4.109375 -3.292969 C 3.234375 -3.292969 2.636719 -3.199219 2.300781 -2.996094 C 1.964844 -2.789062 1.796875 -2.457031 1.796875 -1.976562 C 1.796875 -1.59375 1.917969 -1.292969 2.167969 -1.066406 C 2.417969 -0.839844 2.765625 -0.730469 3.199219 -0.730469 C 3.796875 -0.730469 4.277344 -0.945312 4.636719 -1.367188 C 4.996094 -1.785156 5.175781 -2.347656 5.175781 -3.054688 L 5.175781 -3.292969 Z M 6.25 -3.738281 L 6.25 0 L 5.175781 0 L 5.175781 -0.992188 C 4.921875 -0.597656 4.621094 -0.300781 4.25 -0.109375 C 3.890625 0.0703125 3.449219 0.167969 2.910156 0.167969 C 2.238281 0.167969 1.699219 -0.0234375 1.304688 -0.394531 C 0.910156 -0.765625 0.71875 -1.269531 0.71875 -1.90625 C 0.71875 -2.636719 0.96875 -3.199219 1.460938 -3.570312 C 1.953125 -3.941406 2.695312 -4.132812 3.664062 -4.132812 L 5.175781 -4.132812 L 5.175781 -4.238281 C 5.175781 -4.730469 5.007812 -5.113281 4.683594 -5.390625 C 4.359375 -5.664062 3.90625 -5.796875 3.316406 -5.796875 C 2.945312 -5.796875 2.574219 -5.75 2.226562 -5.664062 C 1.867188 -5.570312 1.519531 -5.4375 1.199219 -5.257812 L 1.199219 -6.25 C 1.59375 -6.40625 1.976562 -6.515625 2.347656 -6.585938 C 2.71875 -6.671875 3.078125 -6.707031 3.425781 -6.707031 C 4.371094 -6.707031 5.078125 -6.46875 5.546875 -5.976562 C 6.011719 -5.484375 6.25 -4.730469 6.25 -3.738281 Z M 6.25 -3.738281 "/>
</g>
<g id="glyph-1-14">
<path d="M 6.574219 -3.953125 L 6.574219 0 L 5.496094 0 L 5.496094 -3.917969 C 5.496094 -4.539062 5.378906 -5.007812 5.136719 -5.304688 C 4.886719 -5.617188 4.527344 -5.773438 4.046875 -5.773438 C 3.460938 -5.773438 3.007812 -5.59375 2.671875 -5.222656 C 2.335938 -4.851562 2.167969 -4.335938 2.167969 -3.699219 L 2.167969 0 L 1.089844 0 L 1.089844 -6.550781 L 2.167969 -6.550781 L 2.167969 -5.535156 C 2.417969 -5.929688 2.730469 -6.214844 3.078125 -6.417969 C 3.425781 -6.609375 3.832031 -6.707031 4.289062 -6.707031 C 5.042969 -6.707031 5.605469 -6.46875 5.988281 -6 C 6.382812 -5.535156 6.574219 -4.851562 6.574219 -3.953125 Z M 6.574219 -3.953125 "/>
</g>
<g id="glyph-1-15">
<path d="M 6.574219 -3.953125 L 6.574219 0 L 5.496094 0 L 5.496094 -3.917969 C 5.496094 -4.539062 5.378906 -5.007812 5.136719 -5.304688 C 4.886719 -5.617188 4.527344 -5.773438 4.046875 -5.773438 C 3.460938 -5.773438 3.007812 -5.59375 2.671875 -5.222656 C 2.335938 -4.851562 2.167969 -4.335938 2.167969 -3.699219 L 2.167969 0 L 1.089844 0 L 1.089844 -9.101562 L 2.167969 -9.101562 L 2.167969 -5.535156 C 2.417969 -5.929688 2.730469 -6.214844 3.078125 -6.417969 C 3.425781 -6.609375 3.832031 -6.707031 4.289062 -6.707031 C 5.042969 -6.707031 5.605469 -6.46875 5.988281 -6 C 6.382812 -5.535156 6.574219 -4.851562 6.574219 -3.953125 Z M 6.574219 -3.953125 "/>
</g>
<g id="glyph-1-16">
<path d="M 4.863281 -4.707031 C 5.425781 -4.585938 5.867188 -4.335938 6.179688 -3.953125 C 6.503906 -3.570312 6.660156 -3.101562 6.660156 -2.539062 C 6.660156 -1.675781 6.359375 -1.007812 5.773438 -0.539062 C 5.1875 -0.0703125 4.335938 0.167969 3.246094 0.167969 C 2.875 0.167969 2.503906 0.132812 2.109375 0.0585938 C 1.726562 -0.0117188 1.328125 -0.121094 0.910156 -0.261719 L 0.910156 -1.402344 C 1.234375 -1.210938 1.59375 -1.066406 1.988281 -0.96875 C 2.382812 -0.875 2.789062 -0.828125 3.210938 -0.828125 C 3.953125 -0.828125 4.515625 -0.96875 4.898438 -1.257812 C 5.292969 -1.558594 5.484375 -1.976562 5.484375 -2.539062 C 5.484375 -3.054688 5.304688 -3.449219 4.945312 -3.738281 C 4.585938 -4.035156 4.085938 -4.179688 3.4375 -4.179688 L 2.417969 -4.179688 L 2.417969 -5.148438 L 3.484375 -5.148438 C 4.070312 -5.148438 4.515625 -5.269531 4.816406 -5.496094 C 5.125 -5.726562 5.28125 -6.058594 5.28125 -6.503906 C 5.28125 -6.945312 5.125 -7.292969 4.800781 -7.535156 C 4.480469 -7.773438 4.023438 -7.894531 3.4375 -7.894531 C 3.113281 -7.894531 2.765625 -7.855469 2.394531 -7.785156 C 2.023438 -7.726562 1.617188 -7.617188 1.171875 -7.460938 L 1.171875 -8.515625 C 1.617188 -8.648438 2.035156 -8.730469 2.429688 -8.789062 C 2.828125 -8.851562 3.199219 -8.886719 3.546875 -8.886719 C 4.445312 -8.886719 5.148438 -8.683594 5.675781 -8.277344 C 6.191406 -7.867188 6.457031 -7.316406 6.457031 -6.625 C 6.457031 -6.144531 6.3125 -5.738281 6.035156 -5.402344 C 5.761719 -5.066406 5.378906 -4.839844 4.863281 -4.707031 Z M 4.863281 -4.707031 "/>
</g>
<g id="glyph-1-17">
<path d="M 4.527344 -7.699219 L 1.546875 -3.042969 L 4.527344 -3.042969 Z M 4.214844 -8.730469 L 5.699219 -8.730469 L 5.699219 -3.042969 L 6.945312 -3.042969 L 6.945312 -2.058594 L 5.699219 -2.058594 L 5.699219 0 L 4.527344 0 L 4.527344 -2.058594 L 0.585938 -2.058594 L 0.585938 -3.199219 Z M 4.214844 -8.730469 "/>
</g>
<g id="glyph-1-18">
<path d="M 5.316406 -4.097656 C 5.570312 -4.011719 5.820312 -3.820312 6.046875 -3.546875 C 6.300781 -3.269531 6.539062 -2.875 6.777344 -2.382812 L 7.976562 0 L 6.707031 0 L 5.59375 -2.238281 C 5.304688 -2.828125 5.019531 -3.210938 4.742188 -3.402344 C 4.480469 -3.59375 4.109375 -3.6875 3.640625 -3.6875 L 2.359375 -3.6875 L 2.359375 0 L 1.171875 0 L 1.171875 -8.730469 L 3.84375 -8.730469 C 4.839844 -8.730469 5.582031 -8.527344 6.070312 -8.109375 C 6.5625 -7.6875 6.816406 -7.066406 6.816406 -6.214844 C 6.816406 -5.664062 6.683594 -5.210938 6.429688 -4.851562 C 6.179688 -4.480469 5.808594 -4.226562 5.316406 -4.097656 Z M 2.359375 -7.761719 L 2.359375 -4.660156 L 3.84375 -4.660156 C 4.40625 -4.660156 4.839844 -4.789062 5.125 -5.054688 C 5.425781 -5.316406 5.570312 -5.699219 5.570312 -6.214844 C 5.570312 -6.730469 5.425781 -7.113281 5.125 -7.367188 C 4.839844 -7.628906 4.40625 -7.761719 3.84375 -7.761719 Z M 2.359375 -7.761719 "/>
</g>
<g id="glyph-1-19">
<path d="M 6.730469 -3.546875 L 6.730469 -3.019531 L 1.785156 -3.019531 C 1.832031 -2.277344 2.058594 -1.710938 2.457031 -1.316406 C 2.851562 -0.933594 3.414062 -0.742188 4.121094 -0.742188 C 4.539062 -0.742188 4.933594 -0.789062 5.316406 -0.898438 C 5.714844 -0.992188 6.097656 -1.148438 6.480469 -1.351562 L 6.480469 -0.335938 C 6.097656 -0.167969 5.699219 -0.046875 5.292969 0.0351562 C 4.886719 0.121094 4.480469 0.167969 4.058594 0.167969 C 3.019531 0.167969 2.179688 -0.132812 1.570312 -0.742188 C 0.957031 -1.351562 0.660156 -2.167969 0.660156 -3.210938 C 0.660156 -4.277344 0.945312 -5.125 1.519531 -5.761719 C 2.109375 -6.394531 2.886719 -6.707031 3.867188 -6.707031 C 4.753906 -6.707031 5.449219 -6.417969 5.964844 -5.855469 C 6.480469 -5.292969 6.730469 -4.515625 6.730469 -3.546875 Z M 5.652344 -3.855469 C 5.640625 -4.445312 5.484375 -4.921875 5.160156 -5.269531 C 4.839844 -5.617188 4.417969 -5.796875 3.878906 -5.796875 C 3.28125 -5.796875 2.800781 -5.628906 2.441406 -5.28125 C 2.082031 -4.945312 1.878906 -4.46875 1.820312 -3.855469 Z M 5.652344 -3.855469 "/>
</g>
<g id="glyph-1-20">
<path d="M 1.171875 -8.730469 L 2.359375 -8.730469 L 2.359375 -0.992188 L 6.609375 -0.992188 L 6.609375 0 L 1.171875 0 Z M 1.171875 -8.730469 "/>
</g>
<g id="glyph-1-21">
<path d="M 1.042969 -8.730469 L 2.226562 -8.730469 L 2.226562 -3.425781 C 2.226562 -2.492188 2.394531 -1.820312 2.742188 -1.402344 C 3.078125 -0.992188 3.628906 -0.789062 4.382812 -0.789062 C 5.136719 -0.789062 5.6875 -0.992188 6.023438 -1.402344 C 6.371094 -1.820312 6.539062 -2.492188 6.539062 -3.425781 L 6.539062 -8.730469 L 7.726562 -8.730469 L 7.726562 -3.28125 C 7.726562 -2.144531 7.4375 -1.28125 6.875 -0.707031 C 6.3125 -0.121094 5.484375 0.167969 4.382812 0.167969 C 3.28125 0.167969 2.441406 -0.121094 1.878906 -0.707031 C 1.316406 -1.28125 1.042969 -2.144531 1.042969 -3.28125 Z M 1.042969 -8.730469 "/>
</g>
</g>
<clipPath id="clip-0">
<path clip-rule="nonzero" d="M 0.296875 0 L 628.453125 0 L 628.453125 182.289062 L 0.296875 182.289062 Z M 0.296875 0 "/>
</clipPath>
<clipPath id="clip-1">
<path clip-rule="nonzero" d="M 75 22.28125 L 77 22.28125 L 77 156.140625 L 75 156.140625 Z M 75 22.28125 "/>
</clipPath>
<clipPath id="clip-2">
<path clip-rule="nonzero" d="M 120 22.28125 L 122 22.28125 L 122 156.140625 L 120 156.140625 Z M 120 22.28125 "/>
</clipPath>
<clipPath id="clip-3">
<path clip-rule="nonzero" d="M 166 22.28125 L 168 22.28125 L 168 156.140625 L 166 156.140625 Z M 166 22.28125 "/>
</clipPath>
<clipPath id="clip-4">
<path clip-rule="nonzero" d="M 41.152344 151 L 201.601562 151 L 201.601562 153 L 41.152344 153 Z M 41.152344 151 "/>
</clipPath>
<clipPath id="clip-5">
<path clip-rule="nonzero" d="M 41.152344 120 L 201.601562 120 L 201.601562 122 L 41.152344 122 Z M 41.152344 120 "/>
</clipPath>
<clipPath id="clip-6">
<path clip-rule="nonzero" d="M 41.152344 88 L 201.601562 88 L 201.601562 90 L 41.152344 90 Z M 41.152344 88 "/>
</clipPath>
<clipPath id="clip-7">
<path clip-rule="nonzero" d="M 41.152344 57 L 201.601562 57 L 201.601562 59 L 41.152344 59 Z M 41.152344 57 "/>
</clipPath>
<clipPath id="clip-8">
<path clip-rule="nonzero" d="M 41.152344 25 L 201.601562 25 L 201.601562 27 L 41.152344 27 Z M 41.152344 25 "/>
</clipPath>
<clipPath id="clip-9">
<path clip-rule="nonzero" d="M 41.152344 151 L 201.601562 151 L 201.601562 153 L 41.152344 153 Z M 41.152344 151 "/>
</clipPath>
<clipPath id="clip-10">
<path clip-rule="nonzero" d="M 120 22.28125 L 122 22.28125 L 122 156.140625 L 120 156.140625 Z M 120 22.28125 "/>
</clipPath>
<clipPath id="clip-11">
<path clip-rule="nonzero" d="M 285 22.28125 L 287 22.28125 L 287 156.140625 L 285 156.140625 Z M 285 22.28125 "/>
</clipPath>
<clipPath id="clip-12">
<path clip-rule="nonzero" d="M 330 22.28125 L 332 22.28125 L 332 156.140625 L 330 156.140625 Z M 330 22.28125 "/>
</clipPath>
<clipPath id="clip-13">
<path clip-rule="nonzero" d="M 376 22.28125 L 378 22.28125 L 378 156.140625 L 376 156.140625 Z M 376 22.28125 "/>
</clipPath>
<clipPath id="clip-14">
<path clip-rule="nonzero" d="M 250.984375 149 L 411.433594 149 L 411.433594 151 L 250.984375 151 Z M 250.984375 149 "/>
</clipPath>
<clipPath id="clip-15">
<path clip-rule="nonzero" d="M 250.984375 119 L 411.433594 119 L 411.433594 121 L 250.984375 121 Z M 250.984375 119 "/>
</clipPath>
<clipPath id="clip-16">
<path clip-rule="nonzero" d="M 250.984375 88 L 411.433594 88 L 411.433594 90 L 250.984375 90 Z M 250.984375 88 "/>
</clipPath>
<clipPath id="clip-17">
<path clip-rule="nonzero" d="M 250.984375 58 L 411.433594 58 L 411.433594 60 L 250.984375 60 Z M 250.984375 58 "/>
</clipPath>
<clipPath id="clip-18">
<path clip-rule="nonzero" d="M 250.984375 27 L 411.433594 27 L 411.433594 29 L 250.984375 29 Z M 250.984375 27 "/>
</clipPath>
<clipPath id="clip-19">
<path clip-rule="nonzero" d="M 250.984375 88 L 411.433594 88 L 411.433594 90 L 250.984375 90 Z M 250.984375 88 "/>
</clipPath>
<clipPath id="clip-20">
<path clip-rule="nonzero" d="M 330 22.28125 L 332 22.28125 L 332 156.140625 L 330 156.140625 Z M 330 22.28125 "/>
</clipPath>
<clipPath id="clip-21">
<path clip-rule="nonzero" d="M 495 22.28125 L 496 22.28125 L 496 156.140625 L 495 156.140625 Z M 495 22.28125 "/>
</clipPath>
<clipPath id="clip-22">
<path clip-rule="nonzero" d="M 540 22.28125 L 542 22.28125 L 542 156.140625 L 540 156.140625 Z M 540 22.28125 "/>
</clipPath>
<clipPath id="clip-23">
<path clip-rule="nonzero" d="M 586 22.28125 L 588 22.28125 L 588 156.140625 L 586 156.140625 Z M 586 22.28125 "/>
</clipPath>
<clipPath id="clip-24">
<path clip-rule="nonzero" d="M 460.816406 149 L 621.265625 149 L 621.265625 151 L 460.816406 151 Z M 460.816406 149 "/>
</clipPath>
<clipPath id="clip-25">
<path clip-rule="nonzero" d="M 460.816406 119 L 621.265625 119 L 621.265625 121 L 460.816406 121 Z M 460.816406 119 "/>
</clipPath>
<clipPath id="clip-26">
<path clip-rule="nonzero" d="M 460.816406 88 L 621.265625 88 L 621.265625 90 L 460.816406 90 Z M 460.816406 88 "/>
</clipPath>
<clipPath id="clip-27">
<path clip-rule="nonzero" d="M 460.816406 58 L 621.265625 58 L 621.265625 60 L 460.816406 60 Z M 460.816406 58 "/>
</clipPath>
<clipPath id="clip-28">
<path clip-rule="nonzero" d="M 460.816406 27 L 621.265625 27 L 621.265625 29 L 460.816406 29 Z M 460.816406 27 "/>
</clipPath>
<clipPath id="clip-29">
<path clip-rule="nonzero" d="M 460.816406 149 L 621.265625 149 L 621.265625 151 L 460.816406 151 Z M 460.816406 149 "/>
</clipPath>
<clipPath id="clip-30">
<path clip-rule="nonzero" d="M 540 22.28125 L 542 22.28125 L 542 156.140625 L 540 156.140625 Z M 540 22.28125 "/>
</clipPath>
</defs>
<g clip-path="url(#clip-0)">
<path fill-rule="nonzero" fill="rgb(100%, 100%, 100%)" fill-opacity="1" d="M 0.296875 182.289062 L 628.453125 182.289062 L 628.453125 0 L 0.296875 0 Z M 0.296875 182.289062 "/>
</g>
<path fill-rule="nonzero" fill="rgb(100%, 100%, 100%)" fill-opacity="1" d="M 41.152344 156.140625 L 201.601562 156.140625 L 201.601562 22.28125 L 41.152344 22.28125 Z M 41.152344 156.140625 "/>
<g clip-path="url(#clip-1)">
<path fill="none" stroke-width="0.6" stroke-linecap="square" stroke-linejoin="round" stroke="rgb(69.018555%, 69.018555%, 69.018555%)" stroke-opacity="0.25" stroke-miterlimit="10" d="M 75.645366 26.200891 L 75.645366 160.320443 " transform="matrix(0.99806, 0, 0, -0.99806, 0.298253, 182.290689)"/>
</g>
<path fill="none" stroke-width="0.8" stroke-linecap="butt" stroke-linejoin="round" stroke="rgb(0%, 0%, 0%)" stroke-opacity="1" stroke-miterlimit="10" d="M 75.645366 26.200891 L 75.645366 22.701915 " transform="matrix(0.99806, 0, 0, -0.99806, 0.298253, 182.290689)"/>
<g fill="rgb(0%, 0%, 0%)" fill-opacity="1">
<use xlink:href="#glyph-0-0" x="61.245588" y="172.227436"/>
</g>
<g fill="rgb(0%, 0%, 0%)" fill-opacity="1">
<use xlink:href="#glyph-1-0" x="71.296365" y="172.227436"/>
</g>
<g fill="rgb(0%, 0%, 0%)" fill-opacity="1">
<use xlink:href="#glyph-1-1" x="78.919408" y="172.227436"/>
</g>
<g fill="rgb(0%, 0%, 0%)" fill-opacity="1">
<use xlink:href="#glyph-1-2" x="82.726056" y="172.227436"/>
</g>
<g clip-path="url(#clip-2)">
<path fill="none" stroke-width="0.6" stroke-linecap="square" stroke-linejoin="round" stroke="rgb(69.018555%, 69.018555%, 69.018555%)" stroke-opacity="0.25" stroke-miterlimit="10" d="M 121.315993 26.200891 L 121.315993 160.320443 " transform="matrix(0.99806, 0, 0, -0.99806, 0.298253, 182.290689)"/>
</g>
<path fill="none" stroke-width="0.8" stroke-linecap="butt" stroke-linejoin="round" stroke="rgb(0%, 0%, 0%)" stroke-opacity="1" stroke-miterlimit="10" d="M 121.315993 26.200891 L 121.315993 22.701915 " transform="matrix(0.99806, 0, 0, -0.99806, 0.298253, 182.290689)"/>
<g fill="rgb(0%, 0%, 0%)" fill-opacity="1">
<use xlink:href="#glyph-1-3" x="111.848936" y="172.227436"/>
</g>
<g fill="rgb(0%, 0%, 0%)" fill-opacity="1">
<use xlink:href="#glyph-1-1" x="119.471979" y="172.227436"/>
</g>
<g fill="rgb(0%, 0%, 0%)" fill-opacity="1">
<use xlink:href="#glyph-1-3" x="123.278627" y="172.227436"/>
</g>
<g clip-path="url(#clip-3)">
<path fill="none" stroke-width="0.6" stroke-linecap="square" stroke-linejoin="round" stroke="rgb(69.018555%, 69.018555%, 69.018555%)" stroke-opacity="0.25" stroke-miterlimit="10" d="M 166.98662 26.200891 L 166.98662 160.320443 " transform="matrix(0.99806, 0, 0, -0.99806, 0.298253, 182.290689)"/>
</g>
<path fill="none" stroke-width="0.8" stroke-linecap="butt" stroke-linejoin="round" stroke="rgb(0%, 0%, 0%)" stroke-opacity="1" stroke-miterlimit="10" d="M 166.98662 26.200891 L 166.98662 22.701915 " transform="matrix(0.99806, 0, 0, -0.99806, 0.298253, 182.290689)"/>
<g fill="rgb(0%, 0%, 0%)" fill-opacity="1">
<use xlink:href="#glyph-1-0" x="157.430795" y="172.227436"/>
</g>
<g fill="rgb(0%, 0%, 0%)" fill-opacity="1">
<use xlink:href="#glyph-1-1" x="165.053838" y="172.227436"/>
</g>
<g fill="rgb(0%, 0%, 0%)" fill-opacity="1">
<use xlink:href="#glyph-1-2" x="168.860486" y="172.227436"/>
</g>
<g clip-path="url(#clip-4)">
<path fill="none" stroke-width="0.6" stroke-linecap="square" stroke-linejoin="round" stroke="rgb(69.018555%, 69.018555%, 69.018555%)" stroke-opacity="0.25" stroke-miterlimit="10" d="M 40.933497 30.020801 L 201.694575 30.020801 " transform="matrix(0.99806, 0, 0, -0.99806, 0.298253, 182.290689)"/>
</g>
<path fill="none" stroke-width="0.8" stroke-linecap="butt" stroke-linejoin="round" stroke="rgb(0%, 0%, 0%)" stroke-opacity="1" stroke-miterlimit="10" d="M 40.933497 30.020801 L 37.434522 30.020801 " transform="matrix(0.99806, 0, 0, -0.99806, 0.298253, 182.290689)"/>
<g fill="rgb(0%, 0%, 0%)" fill-opacity="1">
<use xlink:href="#glyph-1-3" x="7.484286" y="156.877155"/>
</g>
<g fill="rgb(0%, 0%, 0%)" fill-opacity="1">
<use xlink:href="#glyph-1-1" x="15.107329" y="156.877155"/>
</g>
<g fill="rgb(0%, 0%, 0%)" fill-opacity="1">
<use xlink:href="#glyph-1-3" x="18.913977" y="156.877155"/>
</g>
<g fill="rgb(0%, 0%, 0%)" fill-opacity="1">
<use xlink:href="#glyph-1-3" x="26.537019" y="156.877155"/>
</g>
<g clip-path="url(#clip-5)">
<path fill="none" stroke-width="0.6" stroke-linecap="square" stroke-linejoin="round" stroke="rgb(69.018555%, 69.018555%, 69.018555%)" stroke-opacity="0.25" stroke-miterlimit="10" d="M 40.933497 61.640734 L 201.694575 61.640734 " transform="matrix(0.99806, 0, 0, -0.99806, 0.298253, 182.290689)"/>
</g>
<path fill="none" stroke-width="0.8" stroke-linecap="butt" stroke-linejoin="round" stroke="rgb(0%, 0%, 0%)" stroke-opacity="1" stroke-miterlimit="10" d="M 40.933497 61.640734 L 37.434522 61.640734 " transform="matrix(0.99806, 0, 0, -0.99806, 0.298253, 182.290689)"/>
<g fill="rgb(0%, 0%, 0%)" fill-opacity="1">
<use xlink:href="#glyph-1-3" x="7.484286" y="125.319254"/>
</g>
<g fill="rgb(0%, 0%, 0%)" fill-opacity="1">
<use xlink:href="#glyph-1-1" x="15.107329" y="125.319254"/>
</g>
<g fill="rgb(0%, 0%, 0%)" fill-opacity="1">
<use xlink:href="#glyph-1-0" x="18.913977" y="125.319254"/>
</g>
<g fill="rgb(0%, 0%, 0%)" fill-opacity="1">
<use xlink:href="#glyph-1-2" x="26.537019" y="125.319254"/>
</g>
<g clip-path="url(#clip-6)">
<path fill="none" stroke-width="0.6" stroke-linecap="square" stroke-linejoin="round" stroke="rgb(69.018555%, 69.018555%, 69.018555%)" stroke-opacity="0.25" stroke-miterlimit="10" d="M 40.933497 93.260667 L 201.694575 93.260667 " transform="matrix(0.99806, 0, 0, -0.99806, 0.298253, 182.290689)"/>
</g>
<path fill="none" stroke-width="0.8" stroke-linecap="butt" stroke-linejoin="round" stroke="rgb(0%, 0%, 0%)" stroke-opacity="1" stroke-miterlimit="10" d="M 40.933497 93.260667 L 37.434522 93.260667 " transform="matrix(0.99806, 0, 0, -0.99806, 0.298253, 182.290689)"/>
<g fill="rgb(0%, 0%, 0%)" fill-opacity="1">
<use xlink:href="#glyph-1-3" x="7.484286" y="93.761353"/>
</g>
<g fill="rgb(0%, 0%, 0%)" fill-opacity="1">
<use xlink:href="#glyph-1-1" x="15.107329" y="93.761353"/>
</g>
<g fill="rgb(0%, 0%, 0%)" fill-opacity="1">
<use xlink:href="#glyph-1-2" x="18.913977" y="93.761353"/>
</g>
<g fill="rgb(0%, 0%, 0%)" fill-opacity="1">
<use xlink:href="#glyph-1-3" x="26.537019" y="93.761353"/>
</g>
<g clip-path="url(#clip-7)">
<path fill="none" stroke-width="0.6" stroke-linecap="square" stroke-linejoin="round" stroke="rgb(69.018555%, 69.018555%, 69.018555%)" stroke-opacity="0.25" stroke-miterlimit="10" d="M 40.933497 124.8806 L 201.694575 124.8806 " transform="matrix(0.99806, 0, 0, -0.99806, 0.298253, 182.290689)"/>
</g>
<path fill="none" stroke-width="0.8" stroke-linecap="butt" stroke-linejoin="round" stroke="rgb(0%, 0%, 0%)" stroke-opacity="1" stroke-miterlimit="10" d="M 40.933497 124.8806 L 37.434522 124.8806 " transform="matrix(0.99806, 0, 0, -0.99806, 0.298253, 182.290689)"/>
<g fill="rgb(0%, 0%, 0%)" fill-opacity="1">
<use xlink:href="#glyph-1-3" x="7.484286" y="62.203453"/>
</g>
<g fill="rgb(0%, 0%, 0%)" fill-opacity="1">
<use xlink:href="#glyph-1-1" x="15.107329" y="62.203453"/>
</g>
<g fill="rgb(0%, 0%, 0%)" fill-opacity="1">
<use xlink:href="#glyph-1-4" x="18.913977" y="62.203453"/>
</g>
<g fill="rgb(0%, 0%, 0%)" fill-opacity="1">
<use xlink:href="#glyph-1-2" x="26.537019" y="62.203453"/>
</g>
<g clip-path="url(#clip-8)">
<path fill="none" stroke-width="0.6" stroke-linecap="square" stroke-linejoin="round" stroke="rgb(69.018555%, 69.018555%, 69.018555%)" stroke-opacity="0.25" stroke-miterlimit="10" d="M 40.933497 156.496619 L 201.694575 156.496619 " transform="matrix(0.99806, 0, 0, -0.99806, 0.298253, 182.290689)"/>
</g>
<path fill="none" stroke-width="0.8" stroke-linecap="butt" stroke-linejoin="round" stroke="rgb(0%, 0%, 0%)" stroke-opacity="1" stroke-miterlimit="10" d="M 40.933497 156.496619 L 37.434522 156.496619 " transform="matrix(0.99806, 0, 0, -0.99806, 0.298253, 182.290689)"/>
<g fill="rgb(0%, 0%, 0%)" fill-opacity="1">
<use xlink:href="#glyph-1-5" x="7.484286" y="30.645552"/>
</g>
<g fill="rgb(0%, 0%, 0%)" fill-opacity="1">
<use xlink:href="#glyph-1-1" x="15.107329" y="30.645552"/>
</g>
<g fill="rgb(0%, 0%, 0%)" fill-opacity="1">
<use xlink:href="#glyph-1-3" x="18.913977" y="30.645552"/>
</g>
<g fill="rgb(0%, 0%, 0%)" fill-opacity="1">
<use xlink:href="#glyph-1-3" x="26.537019" y="30.645552"/>
</g>
<path fill="none" stroke-width="2.2" stroke-linecap="square" stroke-linejoin="round" stroke="rgb(18.03894%, 42.744446%, 64.312744%)" stroke-opacity="1" stroke-miterlimit="10" d="M 48.240641 32.294743 L 53.61826 33.057942 L 58.50665 33.958126 L 62.905809 34.987467 L 66.815737 36.114653 L 70.725666 37.484498 L 74.146364 38.913051 L 77.567062 40.592089 L 80.502444 42.255472 L 83.433912 44.149772 L 86.36538 46.290644 L 89.300762 48.705484 L 92.23223 51.40995 L 95.163698 54.415781 L 98.09908 57.734719 L 101.030548 61.362851 L 104.451246 65.981185 L 107.871944 70.990903 L 111.781873 77.127808 L 116.670262 85.264687 L 132.31389 111.741831 L 136.223819 117.722182 L 139.644517 122.567519 L 143.065215 127.00973 L 145.996683 130.485222 L 148.932065 133.647607 L 151.863533 136.500798 L 154.795001 139.056537 L 157.730383 141.334393 L 160.661851 143.350022 L 163.593319 145.122993 L 167.014017 146.919446 L 170.438629 148.449759 L 173.859328 149.753068 L 177.769256 150.993756 L 182.168415 152.132684 L 186.567574 153.040696 L 191.455963 153.835206 L 194.387431 154.222676 " transform="matrix(0.99806, 0, 0, -0.99806, 0.298253, 182.290689)"/>
<g clip-path="url(#clip-9)">
<path fill="none" stroke-width="0.8" stroke-linecap="square" stroke-linejoin="round" stroke="rgb(76.861572%, 79.214478%, 81.959534%)" stroke-opacity="1" stroke-miterlimit="10" d="M 40.933497 30.020801 L 201.694575 30.020801 " transform="matrix(0.99806, 0, 0, -0.99806, 0.298253, 182.290689)"/>
</g>
<g clip-path="url(#clip-10)">
<path fill="none" stroke-width="0.8" stroke-linecap="square" stroke-linejoin="round" stroke="rgb(76.861572%, 79.214478%, 81.959534%)" stroke-opacity="1" stroke-miterlimit="10" d="M 121.315993 26.200891 L 121.315993 160.320443 " transform="matrix(0.99806, 0, 0, -0.99806, 0.298253, 182.290689)"/>
</g>
<path fill="none" stroke-width="0.8" stroke-linecap="square" stroke-linejoin="miter" stroke="rgb(0%, 0%, 0%)" stroke-opacity="1" stroke-miterlimit="10" d="M 40.933497 26.200891 L 40.933497 160.320443 " transform="matrix(0.99806, 0, 0, -0.99806, 0.298253, 182.290689)"/>
<path fill="none" stroke-width="0.8" stroke-linecap="square" stroke-linejoin="miter" stroke="rgb(0%, 0%, 0%)" stroke-opacity="1" stroke-miterlimit="10" d="M 40.933497 26.200891 L 201.694575 26.200891 " transform="matrix(0.99806, 0, 0, -0.99806, 0.298253, 182.290689)"/>
<g fill="rgb(0%, 0%, 0%)" fill-opacity="1">
<use xlink:href="#glyph-1-6" x="97.829311" y="16.293331"/>
</g>
<g fill="rgb(0%, 0%, 0%)" fill-opacity="1">
<use xlink:href="#glyph-1-7" x="104.067233" y="16.293331"/>
</g>
<g fill="rgb(0%, 0%, 0%)" fill-opacity="1">
<use xlink:href="#glyph-1-8" x="107.390914" y="16.293331"/>
</g>
<g fill="rgb(0%, 0%, 0%)" fill-opacity="1">
<use xlink:href="#glyph-1-9" x="115.003929" y="16.293331"/>
</g>
<g fill="rgb(0%, 0%, 0%)" fill-opacity="1">
<use xlink:href="#glyph-1-10" x="126.667306" y="16.293331"/>
</g>
<g fill="rgb(0%, 0%, 0%)" fill-opacity="1">
<use xlink:href="#glyph-1-7" x="133.999009" y="16.293331"/>
</g>
<g fill="rgb(0%, 0%, 0%)" fill-opacity="1">
<use xlink:href="#glyph-1-11" x="137.32269" y="16.293331"/>
</g>
<path fill-rule="nonzero" fill="rgb(100%, 100%, 100%)" fill-opacity="1" d="M 250.984375 156.140625 L 411.433594 156.140625 L 411.433594 22.28125 L 250.984375 22.28125 Z M 250.984375 156.140625 "/>
<g clip-path="url(#clip-11)">
<path fill="none" stroke-width="0.6" stroke-linecap="square" stroke-linejoin="round" stroke="rgb(69.018555%, 69.018555%, 69.018555%)" stroke-opacity="0.25" stroke-miterlimit="10" d="M 285.885239 26.200891 L 285.885239 160.320443 " transform="matrix(0.99806, 0, 0, -0.99806, 0.298253, 182.290689)"/>
</g>
<path fill="none" stroke-width="0.8" stroke-linecap="butt" stroke-linejoin="round" stroke="rgb(0%, 0%, 0%)" stroke-opacity="1" stroke-miterlimit="10" d="M 285.885239 26.200891 L 285.885239 22.701915 " transform="matrix(0.99806, 0, 0, -0.99806, 0.298253, 182.290689)"/>
<g fill="rgb(0%, 0%, 0%)" fill-opacity="1">
<use xlink:href="#glyph-0-0" x="271.077745" y="172.227436"/>
</g>
<g fill="rgb(0%, 0%, 0%)" fill-opacity="1">
<use xlink:href="#glyph-1-0" x="281.128522" y="172.227436"/>
</g>
<g fill="rgb(0%, 0%, 0%)" fill-opacity="1">
<use xlink:href="#glyph-1-1" x="288.751565" y="172.227436"/>
</g>
<g fill="rgb(0%, 0%, 0%)" fill-opacity="1">
<use xlink:href="#glyph-1-2" x="292.558213" y="172.227436"/>
</g>
<g clip-path="url(#clip-12)">
<path fill="none" stroke-width="0.6" stroke-linecap="square" stroke-linejoin="round" stroke="rgb(69.018555%, 69.018555%, 69.018555%)" stroke-opacity="0.25" stroke-miterlimit="10" d="M 331.555867 26.200891 L 331.555867 160.320443 " transform="matrix(0.99806, 0, 0, -0.99806, 0.298253, 182.290689)"/>
</g>
<path fill="none" stroke-width="0.8" stroke-linecap="butt" stroke-linejoin="round" stroke="rgb(0%, 0%, 0%)" stroke-opacity="1" stroke-miterlimit="10" d="M 331.555867 26.200891 L 331.555867 22.701915 " transform="matrix(0.99806, 0, 0, -0.99806, 0.298253, 182.290689)"/>
<g fill="rgb(0%, 0%, 0%)" fill-opacity="1">
<use xlink:href="#glyph-1-3" x="321.681094" y="172.227436"/>
</g>
<g fill="rgb(0%, 0%, 0%)" fill-opacity="1">
<use xlink:href="#glyph-1-1" x="329.304136" y="172.227436"/>
</g>
<g fill="rgb(0%, 0%, 0%)" fill-opacity="1">
<use xlink:href="#glyph-1-3" x="333.110785" y="172.227436"/>
</g>
<g clip-path="url(#clip-13)">
<path fill="none" stroke-width="0.6" stroke-linecap="square" stroke-linejoin="round" stroke="rgb(69.018555%, 69.018555%, 69.018555%)" stroke-opacity="0.25" stroke-miterlimit="10" d="M 377.226494 26.200891 L 377.226494 160.320443 " transform="matrix(0.99806, 0, 0, -0.99806, 0.298253, 182.290689)"/>
</g>
<path fill="none" stroke-width="0.8" stroke-linecap="butt" stroke-linejoin="round" stroke="rgb(0%, 0%, 0%)" stroke-opacity="1" stroke-miterlimit="10" d="M 377.226494 26.200891 L 377.226494 22.701915 " transform="matrix(0.99806, 0, 0, -0.99806, 0.298253, 182.290689)"/>
<g fill="rgb(0%, 0%, 0%)" fill-opacity="1">
<use xlink:href="#glyph-1-0" x="367.262953" y="172.227436"/>
</g>
<g fill="rgb(0%, 0%, 0%)" fill-opacity="1">
<use xlink:href="#glyph-1-1" x="374.885995" y="172.227436"/>
</g>
<g fill="rgb(0%, 0%, 0%)" fill-opacity="1">
<use xlink:href="#glyph-1-2" x="378.692643" y="172.227436"/>
</g>
<g clip-path="url(#clip-14)">
<path fill="none" stroke-width="0.6" stroke-linecap="square" stroke-linejoin="round" stroke="rgb(69.018555%, 69.018555%, 69.018555%)" stroke-opacity="0.25" stroke-miterlimit="10" d="M 251.173371 32.255605 L 411.934448 32.255605 " transform="matrix(0.99806, 0, 0, -0.99806, 0.298253, 182.290689)"/>
</g>
<path fill="none" stroke-width="0.8" stroke-linecap="butt" stroke-linejoin="round" stroke="rgb(0%, 0%, 0%)" stroke-opacity="1" stroke-miterlimit="10" d="M 251.173371 32.255605 L 247.674396 32.255605 " transform="matrix(0.99806, 0, 0, -0.99806, 0.298253, 182.290689)"/>
<g fill="rgb(0%, 0%, 0%)" fill-opacity="1">
<use xlink:href="#glyph-0-0" x="214.899266" y="154.647563"/>
</g>
<g fill="rgb(0%, 0%, 0%)" fill-opacity="1">
<use xlink:href="#glyph-1-5" x="224.950044" y="154.647563"/>
</g>
<g fill="rgb(0%, 0%, 0%)" fill-opacity="1">
<use xlink:href="#glyph-1-1" x="232.573086" y="154.647563"/>
</g>
<g fill="rgb(0%, 0%, 0%)" fill-opacity="1">
<use xlink:href="#glyph-1-3" x="236.379734" y="154.647563"/>
</g>
<g clip-path="url(#clip-15)">
<path fill="none" stroke-width="0.6" stroke-linecap="square" stroke-linejoin="round" stroke="rgb(69.018555%, 69.018555%, 69.018555%)" stroke-opacity="0.25" stroke-miterlimit="10" d="M 251.173371 62.756179 L 411.934448 62.756179 " transform="matrix(0.99806, 0, 0, -0.99806, 0.298253, 182.290689)"/>
</g>
<path fill="none" stroke-width="0.8" stroke-linecap="butt" stroke-linejoin="round" stroke="rgb(0%, 0%, 0%)" stroke-opacity="1" stroke-miterlimit="10" d="M 251.173371 62.756179 L 247.674396 62.756179 " transform="matrix(0.99806, 0, 0, -0.99806, 0.298253, 182.290689)"/>
<g fill="rgb(0%, 0%, 0%)" fill-opacity="1">
<use xlink:href="#glyph-0-0" x="214.899266" y="124.204458"/>
</g>
<g fill="rgb(0%, 0%, 0%)" fill-opacity="1">
<use xlink:href="#glyph-1-3" x="224.950044" y="124.204458"/>
</g>
<g fill="rgb(0%, 0%, 0%)" fill-opacity="1">
<use xlink:href="#glyph-1-1" x="232.573086" y="124.204458"/>
</g>
<g fill="rgb(0%, 0%, 0%)" fill-opacity="1">
<use xlink:href="#glyph-1-2" x="236.379734" y="124.204458"/>
</g>
<g clip-path="url(#clip-16)">
<path fill="none" stroke-width="0.6" stroke-linecap="square" stroke-linejoin="round" stroke="rgb(69.018555%, 69.018555%, 69.018555%)" stroke-opacity="0.25" stroke-miterlimit="10" d="M 251.173371 93.260667 L 411.934448 93.260667 " transform="matrix(0.99806, 0, 0, -0.99806, 0.298253, 182.290689)"/>
</g>
<path fill="none" stroke-width="0.8" stroke-linecap="butt" stroke-linejoin="round" stroke="rgb(0%, 0%, 0%)" stroke-opacity="1" stroke-miterlimit="10" d="M 251.173371 93.260667 L 247.674396 93.260667 " transform="matrix(0.99806, 0, 0, -0.99806, 0.298253, 182.290689)"/>
<g fill="rgb(0%, 0%, 0%)" fill-opacity="1">
<use xlink:href="#glyph-1-3" x="224.942246" y="93.761353"/>
</g>
<g fill="rgb(0%, 0%, 0%)" fill-opacity="1">
<use xlink:href="#glyph-1-1" x="232.565289" y="93.761353"/>
</g>
<g fill="rgb(0%, 0%, 0%)" fill-opacity="1">
<use xlink:href="#glyph-1-3" x="236.371937" y="93.761353"/>
</g>
<g clip-path="url(#clip-17)">
<path fill="none" stroke-width="0.6" stroke-linecap="square" stroke-linejoin="round" stroke="rgb(69.018555%, 69.018555%, 69.018555%)" stroke-opacity="0.25" stroke-miterlimit="10" d="M 251.173371 123.761241 L 411.934448 123.761241 " transform="matrix(0.99806, 0, 0, -0.99806, 0.298253, 182.290689)"/>
</g>
<path fill="none" stroke-width="0.8" stroke-linecap="butt" stroke-linejoin="round" stroke="rgb(0%, 0%, 0%)" stroke-opacity="1" stroke-miterlimit="10" d="M 251.173371 123.761241 L 247.674396 123.761241 " transform="matrix(0.99806, 0, 0, -0.99806, 0.298253, 182.290689)"/>
<g fill="rgb(0%, 0%, 0%)" fill-opacity="1">
<use xlink:href="#glyph-1-3" x="224.942246" y="63.318248"/>
</g>
<g fill="rgb(0%, 0%, 0%)" fill-opacity="1">
<use xlink:href="#glyph-1-1" x="232.565289" y="63.318248"/>
</g>
<g fill="rgb(0%, 0%, 0%)" fill-opacity="1">
<use xlink:href="#glyph-1-2" x="236.371937" y="63.318248"/>
</g>
<g clip-path="url(#clip-18)">
<path fill="none" stroke-width="0.6" stroke-linecap="square" stroke-linejoin="round" stroke="rgb(69.018555%, 69.018555%, 69.018555%)" stroke-opacity="0.25" stroke-miterlimit="10" d="M 251.173371 154.265729 L 411.934448 154.265729 " transform="matrix(0.99806, 0, 0, -0.99806, 0.298253, 182.290689)"/>
</g>
<path fill="none" stroke-width="0.8" stroke-linecap="butt" stroke-linejoin="round" stroke="rgb(0%, 0%, 0%)" stroke-opacity="1" stroke-miterlimit="10" d="M 251.173371 154.265729 L 247.674396 154.265729 " transform="matrix(0.99806, 0, 0, -0.99806, 0.298253, 182.290689)"/>
<g fill="rgb(0%, 0%, 0%)" fill-opacity="1">
<use xlink:href="#glyph-1-5" x="224.942246" y="32.875143"/>
</g>
<g fill="rgb(0%, 0%, 0%)" fill-opacity="1">
<use xlink:href="#glyph-1-1" x="232.565289" y="32.875143"/>
</g>
<g fill="rgb(0%, 0%, 0%)" fill-opacity="1">
<use xlink:href="#glyph-1-3" x="236.371937" y="32.875143"/>
</g>
<path fill="none" stroke-width="2.2" stroke-linecap="square" stroke-linejoin="round" stroke="rgb(18.03894%, 42.744446%, 64.312744%)" stroke-opacity="1" stroke-miterlimit="10" d="M 258.480515 32.294743 L 273.634913 32.470866 L 281.45477 32.76049 L 286.832389 33.159702 L 291.231548 33.715468 L 294.652246 34.365166 L 297.583714 35.14402 L 300.029866 36.005066 L 302.472103 37.108769 L 304.425111 38.208559 L 306.382032 39.547093 L 308.338953 41.159596 L 310.291961 43.096948 L 312.248882 45.406115 L 314.201889 48.134063 L 316.15881 51.331673 L 318.111818 55.034168 L 320.068739 59.268945 L 322.021746 64.036005 L 324.467898 70.71302 L 326.910136 78.078872 L 330.330834 89.186357 L 336.686914 109.961032 L 339.129152 117.201641 L 341.575303 123.726016 L 343.528311 128.360006 L 345.485232 132.461712 L 347.438239 136.035051 L 349.39516 139.111331 L 351.348168 141.729691 L 353.305089 143.941012 L 355.26201 145.79226 L 357.215018 147.3304 L 359.171939 148.606312 L 361.124946 149.655222 L 363.571098 150.704132 L 366.013335 151.522125 L 368.944803 152.261841 L 372.369415 152.880228 L 376.279344 153.357717 L 381.163819 153.733446 L 388.00913 154.011329 L 398.271225 154.183538 L 404.627305 154.222676 " transform="matrix(0.99806, 0, 0, -0.99806, 0.298253, 182.290689)"/>
<g clip-path="url(#clip-19)">
<path fill="none" stroke-width="0.8" stroke-linecap="square" stroke-linejoin="round" stroke="rgb(76.861572%, 79.214478%, 81.959534%)" stroke-opacity="1" stroke-miterlimit="10" d="M 251.173371 93.260667 L 411.934448 93.260667 " transform="matrix(0.99806, 0, 0, -0.99806, 0.298253, 182.290689)"/>
</g>
<g clip-path="url(#clip-20)">
<path fill="none" stroke-width="0.8" stroke-linecap="square" stroke-linejoin="round" stroke="rgb(76.861572%, 79.214478%, 81.959534%)" stroke-opacity="1" stroke-miterlimit="10" d="M 331.555867 26.200891 L 331.555867 160.320443 " transform="matrix(0.99806, 0, 0, -0.99806, 0.298253, 182.290689)"/>
</g>
<path fill="none" stroke-width="0.8" stroke-linecap="square" stroke-linejoin="miter" stroke="rgb(0%, 0%, 0%)" stroke-opacity="1" stroke-miterlimit="10" d="M 251.173371 26.200891 L 251.173371 160.320443 " transform="matrix(0.99806, 0, 0, -0.99806, 0.298253, 182.290689)"/>
<path fill="none" stroke-width="0.8" stroke-linecap="square" stroke-linejoin="miter" stroke="rgb(0%, 0%, 0%)" stroke-opacity="1" stroke-miterlimit="10" d="M 251.173371 26.200891 L 411.934448 26.200891 " transform="matrix(0.99806, 0, 0, -0.99806, 0.298253, 182.290689)"/>
<g fill="rgb(0%, 0%, 0%)" fill-opacity="1">
<use xlink:href="#glyph-1-12" x="317.595285" y="16.293331"/>
</g>
<g fill="rgb(0%, 0%, 0%)" fill-opacity="1">
<use xlink:href="#glyph-1-13" x="322.288211" y="16.293331"/>
</g>
<g fill="rgb(0%, 0%, 0%)" fill-opacity="1">
<use xlink:href="#glyph-1-14" x="329.635789" y="16.293331"/>
</g>
<g fill="rgb(0%, 0%, 0%)" fill-opacity="1">
<use xlink:href="#glyph-1-15" x="337.232929" y="16.293331"/>
</g>
<path fill-rule="nonzero" fill="rgb(100%, 100%, 100%)" fill-opacity="1" d="M 460.816406 156.140625 L 621.265625 156.140625 L 621.265625 22.28125 L 460.816406 22.28125 Z M 460.816406 156.140625 "/>
<g clip-path="url(#clip-21)">
<path fill="none" stroke-width="0.6" stroke-linecap="square" stroke-linejoin="round" stroke="rgb(69.018555%, 69.018555%, 69.018555%)" stroke-opacity="0.25" stroke-miterlimit="10" d="M 496.125113 26.200891 L 496.125113 160.320443 " transform="matrix(0.99806, 0, 0, -0.99806, 0.298253, 182.290689)"/>
</g>
<path fill="none" stroke-width="0.8" stroke-linecap="butt" stroke-linejoin="round" stroke="rgb(0%, 0%, 0%)" stroke-opacity="1" stroke-miterlimit="10" d="M 496.125113 26.200891 L 496.125113 22.701915 " transform="matrix(0.99806, 0, 0, -0.99806, 0.298253, 182.290689)"/>
<g fill="rgb(0%, 0%, 0%)" fill-opacity="1">
<use xlink:href="#glyph-0-0" x="480.909902" y="172.227436"/>
</g>
<g fill="rgb(0%, 0%, 0%)" fill-opacity="1">
<use xlink:href="#glyph-1-0" x="490.96068" y="172.227436"/>
</g>
<g fill="rgb(0%, 0%, 0%)" fill-opacity="1">
<use xlink:href="#glyph-1-1" x="498.583722" y="172.227436"/>
</g>
<g fill="rgb(0%, 0%, 0%)" fill-opacity="1">
<use xlink:href="#glyph-1-2" x="502.39037" y="172.227436"/>
</g>
<g clip-path="url(#clip-22)">
<path fill="none" stroke-width="0.6" stroke-linecap="square" stroke-linejoin="round" stroke="rgb(69.018555%, 69.018555%, 69.018555%)" stroke-opacity="0.25" stroke-miterlimit="10" d="M 541.79574 26.200891 L 541.79574 160.320443 " transform="matrix(0.99806, 0, 0, -0.99806, 0.298253, 182.290689)"/>
</g>
<path fill="none" stroke-width="0.8" stroke-linecap="butt" stroke-linejoin="round" stroke="rgb(0%, 0%, 0%)" stroke-opacity="1" stroke-miterlimit="10" d="M 541.79574 26.200891 L 541.79574 22.701915 " transform="matrix(0.99806, 0, 0, -0.99806, 0.298253, 182.290689)"/>
<g fill="rgb(0%, 0%, 0%)" fill-opacity="1">
<use xlink:href="#glyph-1-3" x="531.513251" y="172.227436"/>
</g>
<g fill="rgb(0%, 0%, 0%)" fill-opacity="1">
<use xlink:href="#glyph-1-1" x="539.136294" y="172.227436"/>
</g>
<g fill="rgb(0%, 0%, 0%)" fill-opacity="1">
<use xlink:href="#glyph-1-3" x="542.942942" y="172.227436"/>
</g>
<g clip-path="url(#clip-23)">
<path fill="none" stroke-width="0.6" stroke-linecap="square" stroke-linejoin="round" stroke="rgb(69.018555%, 69.018555%, 69.018555%)" stroke-opacity="0.25" stroke-miterlimit="10" d="M 587.466367 26.200891 L 587.466367 160.320443 " transform="matrix(0.99806, 0, 0, -0.99806, 0.298253, 182.290689)"/>
</g>
<path fill="none" stroke-width="0.8" stroke-linecap="butt" stroke-linejoin="round" stroke="rgb(0%, 0%, 0%)" stroke-opacity="1" stroke-miterlimit="10" d="M 587.466367 26.200891 L 587.466367 22.701915 " transform="matrix(0.99806, 0, 0, -0.99806, 0.298253, 182.290689)"/>
<g fill="rgb(0%, 0%, 0%)" fill-opacity="1">
<use xlink:href="#glyph-1-0" x="577.09511" y="172.227436"/>
</g>
<g fill="rgb(0%, 0%, 0%)" fill-opacity="1">
<use xlink:href="#glyph-1-1" x="584.718153" y="172.227436"/>
</g>
<g fill="rgb(0%, 0%, 0%)" fill-opacity="1">
<use xlink:href="#glyph-1-2" x="588.524801" y="172.227436"/>
</g>
<g clip-path="url(#clip-24)">
<path fill="none" stroke-width="0.6" stroke-linecap="square" stroke-linejoin="round" stroke="rgb(69.018555%, 69.018555%, 69.018555%)" stroke-opacity="0.25" stroke-miterlimit="10" d="M 461.413244 32.294743 L 622.174322 32.294743 " transform="matrix(0.99806, 0, 0, -0.99806, 0.298253, 182.290689)"/>
</g>
<path fill="none" stroke-width="0.8" stroke-linecap="butt" stroke-linejoin="round" stroke="rgb(0%, 0%, 0%)" stroke-opacity="1" stroke-miterlimit="10" d="M 461.413244 32.294743 L 457.914269 32.294743 " transform="matrix(0.99806, 0, 0, -0.99806, 0.298253, 182.290689)"/>
<g fill="rgb(0%, 0%, 0%)" fill-opacity="1">
<use xlink:href="#glyph-1-3" x="446.205311" y="154.606727"/>
</g>
<g clip-path="url(#clip-25)">
<path fill="none" stroke-width="0.6" stroke-linecap="square" stroke-linejoin="round" stroke="rgb(69.018555%, 69.018555%, 69.018555%)" stroke-opacity="0.25" stroke-miterlimit="10" d="M 461.413244 62.779662 L 622.174322 62.779662 " transform="matrix(0.99806, 0, 0, -0.99806, 0.298253, 182.290689)"/>
</g>
<path fill="none" stroke-width="0.8" stroke-linecap="butt" stroke-linejoin="round" stroke="rgb(0%, 0%, 0%)" stroke-opacity="1" stroke-miterlimit="10" d="M 461.413244 62.779662 L 457.914269 62.779662 " transform="matrix(0.99806, 0, 0, -0.99806, 0.298253, 182.290689)"/>
<g fill="rgb(0%, 0%, 0%)" fill-opacity="1">
<use xlink:href="#glyph-1-5" x="446.205311" y="124.18404"/>
</g>
<g clip-path="url(#clip-26)">
<path fill="none" stroke-width="0.6" stroke-linecap="square" stroke-linejoin="round" stroke="rgb(69.018555%, 69.018555%, 69.018555%)" stroke-opacity="0.25" stroke-miterlimit="10" d="M 461.413244 93.260667 L 622.174322 93.260667 " transform="matrix(0.99806, 0, 0, -0.99806, 0.298253, 182.290689)"/>
</g>
<path fill="none" stroke-width="0.8" stroke-linecap="butt" stroke-linejoin="round" stroke="rgb(0%, 0%, 0%)" stroke-opacity="1" stroke-miterlimit="10" d="M 461.413244 93.260667 L 457.914269 93.260667 " transform="matrix(0.99806, 0, 0, -0.99806, 0.298253, 182.290689)"/>
<g fill="rgb(0%, 0%, 0%)" fill-opacity="1">
<use xlink:href="#glyph-1-0" x="446.205311" y="93.761353"/>
</g>
<g clip-path="url(#clip-27)">
<path fill="none" stroke-width="0.6" stroke-linecap="square" stroke-linejoin="round" stroke="rgb(69.018555%, 69.018555%, 69.018555%)" stroke-opacity="0.25" stroke-miterlimit="10" d="M 461.413244 123.741671 L 622.174322 123.741671 " transform="matrix(0.99806, 0, 0, -0.99806, 0.298253, 182.290689)"/>
</g>
<path fill="none" stroke-width="0.8" stroke-linecap="butt" stroke-linejoin="round" stroke="rgb(0%, 0%, 0%)" stroke-opacity="1" stroke-miterlimit="10" d="M 461.413244 123.741671 L 457.914269 123.741671 " transform="matrix(0.99806, 0, 0, -0.99806, 0.298253, 182.290689)"/>
<g fill="rgb(0%, 0%, 0%)" fill-opacity="1">
<use xlink:href="#glyph-1-16" x="446.205311" y="63.338667"/>
</g>
<g clip-path="url(#clip-28)">
<path fill="none" stroke-width="0.6" stroke-linecap="square" stroke-linejoin="round" stroke="rgb(69.018555%, 69.018555%, 69.018555%)" stroke-opacity="0.25" stroke-miterlimit="10" d="M 461.413244 154.222676 L 622.174322 154.222676 " transform="matrix(0.99806, 0, 0, -0.99806, 0.298253, 182.290689)"/>
</g>
<path fill="none" stroke-width="0.8" stroke-linecap="butt" stroke-linejoin="round" stroke="rgb(0%, 0%, 0%)" stroke-opacity="1" stroke-miterlimit="10" d="M 461.413244 154.222676 L 457.914269 154.222676 " transform="matrix(0.99806, 0, 0, -0.99806, 0.298253, 182.290689)"/>
<g fill="rgb(0%, 0%, 0%)" fill-opacity="1">
<use xlink:href="#glyph-1-17" x="446.205311" y="32.91598"/>
</g>
<path fill="none" stroke-width="2.2" stroke-linecap="square" stroke-linejoin="round" stroke="rgb(18.03894%, 42.744446%, 64.312744%)" stroke-opacity="1" stroke-miterlimit="10" d="M 468.720388 32.294743 L 541.549168 32.294743 L 542.038398 32.705697 L 614.867178 154.222676 " transform="matrix(0.99806, 0, 0, -0.99806, 0.298253, 182.290689)"/>
<g clip-path="url(#clip-29)">
<path fill="none" stroke-width="0.8" stroke-linecap="square" stroke-linejoin="round" stroke="rgb(76.861572%, 79.214478%, 81.959534%)" stroke-opacity="1" stroke-miterlimit="10" d="M 461.413244 32.294743 L 622.174322 32.294743 " transform="matrix(0.99806, 0, 0, -0.99806, 0.298253, 182.290689)"/>
</g>
<g clip-path="url(#clip-30)">
<path fill="none" stroke-width="0.8" stroke-linecap="square" stroke-linejoin="round" stroke="rgb(76.861572%, 79.214478%, 81.959534%)" stroke-opacity="1" stroke-miterlimit="10" d="M 541.79574 26.200891 L 541.79574 160.320443 " transform="matrix(0.99806, 0, 0, -0.99806, 0.298253, 182.290689)"/>
</g>
<path fill="none" stroke-width="0.8" stroke-linecap="square" stroke-linejoin="miter" stroke="rgb(0%, 0%, 0%)" stroke-opacity="1" stroke-miterlimit="10" d="M 461.413244 26.200891 L 461.413244 160.320443 " transform="matrix(0.99806, 0, 0, -0.99806, 0.298253, 182.290689)"/>
<path fill="none" stroke-width="0.8" stroke-linecap="square" stroke-linejoin="miter" stroke="rgb(0%, 0%, 0%)" stroke-opacity="1" stroke-miterlimit="10" d="M 461.413244 26.200891 L 622.174322 26.200891 " transform="matrix(0.99806, 0, 0, -0.99806, 0.298253, 182.290689)"/>
<g fill="rgb(0%, 0%, 0%)" fill-opacity="1">
<use xlink:href="#glyph-1-18" x="526.031718" y="16.293331"/>
</g>
<g fill="rgb(0%, 0%, 0%)" fill-opacity="1">
<use xlink:href="#glyph-1-19" x="533.831168" y="16.293331"/>
</g>
<g fill="rgb(0%, 0%, 0%)" fill-opacity="1">
<use xlink:href="#glyph-1-20" x="541.204649" y="16.293331"/>
</g>
<g fill="rgb(0%, 0%, 0%)" fill-opacity="1">
<use xlink:href="#glyph-1-21" x="547.285034" y="16.293331"/>
</g>
</svg>
